G04 #@! TF.GenerationSoftware,KiCad,Pcbnew,(5.1.2)-2*
G04 #@! TF.CreationDate,2019-11-18T22:52:41-06:00*
G04 #@! TF.ProjectId,Temporizador_V0,54656d70-6f72-4697-9a61-646f725f5630,rev?*
G04 #@! TF.SameCoordinates,Original*
G04 #@! TF.FileFunction,Soldermask,Bot*
G04 #@! TF.FilePolarity,Negative*
%FSLAX46Y46*%
G04 Gerber Fmt 4.6, Leading zero omitted, Abs format (unit mm)*
G04 Created by KiCad (PCBNEW (5.1.2)-2) date 2019-11-18 22:52:41*
%MOMM*%
%LPD*%
G04 APERTURE LIST*
%ADD10C,0.100000*%
G04 APERTURE END LIST*
D10*
G36*
X156320442Y-126740518D02*
G01*
X156386627Y-126747037D01*
X156556466Y-126798557D01*
X156712991Y-126882222D01*
X156748729Y-126911552D01*
X156850186Y-126994814D01*
X156933448Y-127096271D01*
X156962778Y-127132009D01*
X157046443Y-127288534D01*
X157097963Y-127458373D01*
X157115359Y-127635000D01*
X157097963Y-127811627D01*
X157046443Y-127981466D01*
X156962778Y-128137991D01*
X156933448Y-128173729D01*
X156850186Y-128275186D01*
X156748729Y-128358448D01*
X156712991Y-128387778D01*
X156556466Y-128471443D01*
X156386627Y-128522963D01*
X156320443Y-128529481D01*
X156254260Y-128536000D01*
X156165740Y-128536000D01*
X156099557Y-128529481D01*
X156033373Y-128522963D01*
X155863534Y-128471443D01*
X155707009Y-128387778D01*
X155671271Y-128358448D01*
X155569814Y-128275186D01*
X155486552Y-128173729D01*
X155457222Y-128137991D01*
X155373557Y-127981466D01*
X155322037Y-127811627D01*
X155304641Y-127635000D01*
X155322037Y-127458373D01*
X155373557Y-127288534D01*
X155457222Y-127132009D01*
X155486552Y-127096271D01*
X155569814Y-126994814D01*
X155671271Y-126911552D01*
X155707009Y-126882222D01*
X155863534Y-126798557D01*
X156033373Y-126747037D01*
X156099558Y-126740518D01*
X156165740Y-126734000D01*
X156254260Y-126734000D01*
X156320442Y-126740518D01*
X156320442Y-126740518D01*
G37*
G36*
X154571000Y-128536000D02*
G01*
X152769000Y-128536000D01*
X152769000Y-126734000D01*
X154571000Y-126734000D01*
X154571000Y-128536000D01*
X154571000Y-128536000D01*
G37*
G36*
X151296823Y-122986313D02*
G01*
X151457242Y-123034976D01*
X151589906Y-123105886D01*
X151605078Y-123113996D01*
X151734659Y-123220341D01*
X151841004Y-123349922D01*
X151841005Y-123349924D01*
X151920024Y-123497758D01*
X151968687Y-123658177D01*
X151985117Y-123825000D01*
X151968687Y-123991823D01*
X151920024Y-124152242D01*
X151849114Y-124284906D01*
X151841004Y-124300078D01*
X151734659Y-124429659D01*
X151605078Y-124536004D01*
X151605076Y-124536005D01*
X151457242Y-124615024D01*
X151296823Y-124663687D01*
X151171804Y-124676000D01*
X151088196Y-124676000D01*
X150963177Y-124663687D01*
X150802758Y-124615024D01*
X150654924Y-124536005D01*
X150654922Y-124536004D01*
X150525341Y-124429659D01*
X150418996Y-124300078D01*
X150410886Y-124284906D01*
X150339976Y-124152242D01*
X150291313Y-123991823D01*
X150274883Y-123825000D01*
X150291313Y-123658177D01*
X150339976Y-123497758D01*
X150418995Y-123349924D01*
X150418996Y-123349922D01*
X150525341Y-123220341D01*
X150654922Y-123113996D01*
X150670094Y-123105886D01*
X150802758Y-123034976D01*
X150963177Y-122986313D01*
X151088196Y-122974000D01*
X151171804Y-122974000D01*
X151296823Y-122986313D01*
X151296823Y-122986313D01*
G37*
G36*
X159601000Y-124676000D02*
G01*
X157899000Y-124676000D01*
X157899000Y-122974000D01*
X159601000Y-122974000D01*
X159601000Y-124676000D01*
X159601000Y-124676000D01*
G37*
G36*
X176211000Y-124141000D02*
G01*
X174309000Y-124141000D01*
X174309000Y-122239000D01*
X176211000Y-122239000D01*
X176211000Y-124141000D01*
X176211000Y-124141000D01*
G37*
G36*
X178077395Y-122275546D02*
G01*
X178250466Y-122347234D01*
X178250467Y-122347235D01*
X178406227Y-122451310D01*
X178538690Y-122583773D01*
X178538691Y-122583775D01*
X178642766Y-122739534D01*
X178714454Y-122912605D01*
X178751000Y-123096333D01*
X178751000Y-123283667D01*
X178714454Y-123467395D01*
X178642766Y-123640466D01*
X178642765Y-123640467D01*
X178538690Y-123796227D01*
X178406227Y-123928690D01*
X178327818Y-123981081D01*
X178250466Y-124032766D01*
X178077395Y-124104454D01*
X177893667Y-124141000D01*
X177706333Y-124141000D01*
X177522605Y-124104454D01*
X177349534Y-124032766D01*
X177272182Y-123981081D01*
X177193773Y-123928690D01*
X177061310Y-123796227D01*
X176957235Y-123640467D01*
X176957234Y-123640466D01*
X176885546Y-123467395D01*
X176849000Y-123283667D01*
X176849000Y-123096333D01*
X176885546Y-122912605D01*
X176957234Y-122739534D01*
X177061309Y-122583775D01*
X177061310Y-122583773D01*
X177193773Y-122451310D01*
X177349533Y-122347235D01*
X177349534Y-122347234D01*
X177522605Y-122275546D01*
X177706333Y-122239000D01*
X177893667Y-122239000D01*
X178077395Y-122275546D01*
X178077395Y-122275546D01*
G37*
G36*
X171698228Y-121736703D02*
G01*
X171853100Y-121800853D01*
X171992481Y-121893985D01*
X172111015Y-122012519D01*
X172204147Y-122151900D01*
X172268297Y-122306772D01*
X172301000Y-122471184D01*
X172301000Y-122638816D01*
X172268297Y-122803228D01*
X172204147Y-122958100D01*
X172111015Y-123097481D01*
X171992481Y-123216015D01*
X171853100Y-123309147D01*
X171698228Y-123373297D01*
X171533816Y-123406000D01*
X171366184Y-123406000D01*
X171201772Y-123373297D01*
X171046900Y-123309147D01*
X170907519Y-123216015D01*
X170788985Y-123097481D01*
X170695853Y-122958100D01*
X170631703Y-122803228D01*
X170599000Y-122638816D01*
X170599000Y-122471184D01*
X170631703Y-122306772D01*
X170695853Y-122151900D01*
X170788985Y-122012519D01*
X170907519Y-121893985D01*
X171046900Y-121800853D01*
X171201772Y-121736703D01*
X171366184Y-121704000D01*
X171533816Y-121704000D01*
X171698228Y-121736703D01*
X171698228Y-121736703D01*
G37*
G36*
X163996823Y-121716313D02*
G01*
X164157242Y-121764976D01*
X164224361Y-121800852D01*
X164305078Y-121843996D01*
X164434659Y-121950341D01*
X164541004Y-122079922D01*
X164541005Y-122079924D01*
X164620024Y-122227758D01*
X164668687Y-122388177D01*
X164685117Y-122555000D01*
X164668687Y-122721823D01*
X164620024Y-122882242D01*
X164579477Y-122958100D01*
X164541004Y-123030078D01*
X164434659Y-123159659D01*
X164305078Y-123266004D01*
X164305076Y-123266005D01*
X164157242Y-123345024D01*
X163996823Y-123393687D01*
X163871804Y-123406000D01*
X163788196Y-123406000D01*
X163663177Y-123393687D01*
X163502758Y-123345024D01*
X163354924Y-123266005D01*
X163354922Y-123266004D01*
X163225341Y-123159659D01*
X163118996Y-123030078D01*
X163080523Y-122958100D01*
X163039976Y-122882242D01*
X162991313Y-122721823D01*
X162974883Y-122555000D01*
X162991313Y-122388177D01*
X163039976Y-122227758D01*
X163118995Y-122079924D01*
X163118996Y-122079922D01*
X163225341Y-121950341D01*
X163354922Y-121843996D01*
X163435639Y-121800852D01*
X163502758Y-121764976D01*
X163663177Y-121716313D01*
X163788196Y-121704000D01*
X163871804Y-121704000D01*
X163996823Y-121716313D01*
X163996823Y-121716313D01*
G37*
G36*
X158916823Y-120446313D02*
G01*
X159077242Y-120494976D01*
X159209906Y-120565886D01*
X159225078Y-120573996D01*
X159354659Y-120680341D01*
X159461004Y-120809922D01*
X159461005Y-120809924D01*
X159540024Y-120957758D01*
X159588687Y-121118177D01*
X159605117Y-121285000D01*
X159588687Y-121451823D01*
X159540024Y-121612242D01*
X159490978Y-121704000D01*
X159461004Y-121760078D01*
X159354659Y-121889659D01*
X159225078Y-121996004D01*
X159225076Y-121996005D01*
X159077242Y-122075024D01*
X158916823Y-122123687D01*
X158791804Y-122136000D01*
X158708196Y-122136000D01*
X158583177Y-122123687D01*
X158422758Y-122075024D01*
X158274924Y-121996005D01*
X158274922Y-121996004D01*
X158145341Y-121889659D01*
X158038996Y-121760078D01*
X158009022Y-121704000D01*
X157959976Y-121612242D01*
X157911313Y-121451823D01*
X157894883Y-121285000D01*
X157911313Y-121118177D01*
X157959976Y-120957758D01*
X158038995Y-120809924D01*
X158038996Y-120809922D01*
X158145341Y-120680341D01*
X158274922Y-120573996D01*
X158290094Y-120565886D01*
X158422758Y-120494976D01*
X158583177Y-120446313D01*
X158708196Y-120434000D01*
X158791804Y-120434000D01*
X158916823Y-120446313D01*
X158916823Y-120446313D01*
G37*
G36*
X151296823Y-120446313D02*
G01*
X151457242Y-120494976D01*
X151589906Y-120565886D01*
X151605078Y-120573996D01*
X151734659Y-120680341D01*
X151841004Y-120809922D01*
X151841005Y-120809924D01*
X151920024Y-120957758D01*
X151968687Y-121118177D01*
X151985117Y-121285000D01*
X151968687Y-121451823D01*
X151920024Y-121612242D01*
X151870978Y-121704000D01*
X151841004Y-121760078D01*
X151734659Y-121889659D01*
X151605078Y-121996004D01*
X151605076Y-121996005D01*
X151457242Y-122075024D01*
X151296823Y-122123687D01*
X151171804Y-122136000D01*
X151088196Y-122136000D01*
X150963177Y-122123687D01*
X150802758Y-122075024D01*
X150654924Y-121996005D01*
X150654922Y-121996004D01*
X150525341Y-121889659D01*
X150418996Y-121760078D01*
X150389022Y-121704000D01*
X150339976Y-121612242D01*
X150291313Y-121451823D01*
X150274883Y-121285000D01*
X150291313Y-121118177D01*
X150339976Y-120957758D01*
X150418995Y-120809924D01*
X150418996Y-120809922D01*
X150525341Y-120680341D01*
X150654922Y-120573996D01*
X150670094Y-120565886D01*
X150802758Y-120494976D01*
X150963177Y-120446313D01*
X151088196Y-120434000D01*
X151171804Y-120434000D01*
X151296823Y-120446313D01*
X151296823Y-120446313D01*
G37*
G36*
X151296823Y-117906313D02*
G01*
X151457242Y-117954976D01*
X151589906Y-118025886D01*
X151605078Y-118033996D01*
X151734659Y-118140341D01*
X151841004Y-118269922D01*
X151841005Y-118269924D01*
X151920024Y-118417758D01*
X151968687Y-118578177D01*
X151985117Y-118745000D01*
X151968687Y-118911823D01*
X151920024Y-119072242D01*
X151849114Y-119204906D01*
X151841004Y-119220078D01*
X151734659Y-119349659D01*
X151605078Y-119456004D01*
X151605076Y-119456005D01*
X151457242Y-119535024D01*
X151296823Y-119583687D01*
X151171804Y-119596000D01*
X151088196Y-119596000D01*
X150963177Y-119583687D01*
X150802758Y-119535024D01*
X150654924Y-119456005D01*
X150654922Y-119456004D01*
X150525341Y-119349659D01*
X150418996Y-119220078D01*
X150410886Y-119204906D01*
X150339976Y-119072242D01*
X150291313Y-118911823D01*
X150274883Y-118745000D01*
X150291313Y-118578177D01*
X150339976Y-118417758D01*
X150418995Y-118269924D01*
X150418996Y-118269922D01*
X150525341Y-118140341D01*
X150654922Y-118033996D01*
X150670094Y-118025886D01*
X150802758Y-117954976D01*
X150963177Y-117906313D01*
X151088196Y-117894000D01*
X151171804Y-117894000D01*
X151296823Y-117906313D01*
X151296823Y-117906313D01*
G37*
G36*
X158916823Y-117906313D02*
G01*
X159077242Y-117954976D01*
X159209906Y-118025886D01*
X159225078Y-118033996D01*
X159354659Y-118140341D01*
X159461004Y-118269922D01*
X159461005Y-118269924D01*
X159540024Y-118417758D01*
X159588687Y-118578177D01*
X159605117Y-118745000D01*
X159588687Y-118911823D01*
X159540024Y-119072242D01*
X159469114Y-119204906D01*
X159461004Y-119220078D01*
X159354659Y-119349659D01*
X159225078Y-119456004D01*
X159225076Y-119456005D01*
X159077242Y-119535024D01*
X158916823Y-119583687D01*
X158791804Y-119596000D01*
X158708196Y-119596000D01*
X158583177Y-119583687D01*
X158422758Y-119535024D01*
X158274924Y-119456005D01*
X158274922Y-119456004D01*
X158145341Y-119349659D01*
X158038996Y-119220078D01*
X158030886Y-119204906D01*
X157959976Y-119072242D01*
X157911313Y-118911823D01*
X157894883Y-118745000D01*
X157911313Y-118578177D01*
X157959976Y-118417758D01*
X158038995Y-118269924D01*
X158038996Y-118269922D01*
X158145341Y-118140341D01*
X158274922Y-118033996D01*
X158290094Y-118025886D01*
X158422758Y-117954976D01*
X158583177Y-117906313D01*
X158708196Y-117894000D01*
X158791804Y-117894000D01*
X158916823Y-117906313D01*
X158916823Y-117906313D01*
G37*
G36*
X175537395Y-115290546D02*
G01*
X175710466Y-115362234D01*
X175716572Y-115366314D01*
X175866227Y-115466310D01*
X175998690Y-115598773D01*
X176041284Y-115662520D01*
X176102766Y-115754534D01*
X176174454Y-115927605D01*
X176211000Y-116111333D01*
X176211000Y-116298667D01*
X176174454Y-116482395D01*
X176102766Y-116655466D01*
X176102765Y-116655467D01*
X175998690Y-116811227D01*
X175866227Y-116943690D01*
X175843092Y-116959148D01*
X175710466Y-117047766D01*
X175537395Y-117119454D01*
X175353667Y-117156000D01*
X175166333Y-117156000D01*
X174982605Y-117119454D01*
X174809534Y-117047766D01*
X174676908Y-116959148D01*
X174653773Y-116943690D01*
X174521310Y-116811227D01*
X174417235Y-116655467D01*
X174417234Y-116655466D01*
X174345546Y-116482395D01*
X174309000Y-116298667D01*
X174309000Y-116111333D01*
X174345546Y-115927605D01*
X174417234Y-115754534D01*
X174478716Y-115662520D01*
X174521310Y-115598773D01*
X174653773Y-115466310D01*
X174803428Y-115366314D01*
X174809534Y-115362234D01*
X174982605Y-115290546D01*
X175166333Y-115254000D01*
X175353667Y-115254000D01*
X175537395Y-115290546D01*
X175537395Y-115290546D01*
G37*
G36*
X178751000Y-117156000D02*
G01*
X176849000Y-117156000D01*
X176849000Y-115254000D01*
X178751000Y-115254000D01*
X178751000Y-117156000D01*
X178751000Y-117156000D01*
G37*
G36*
X164078228Y-115386703D02*
G01*
X164233100Y-115450853D01*
X164372481Y-115543985D01*
X164491015Y-115662519D01*
X164584147Y-115801900D01*
X164648297Y-115956772D01*
X164681000Y-116121184D01*
X164681000Y-116288816D01*
X164648297Y-116453228D01*
X164584147Y-116608100D01*
X164491015Y-116747481D01*
X164372481Y-116866015D01*
X164233100Y-116959147D01*
X164078228Y-117023297D01*
X163913816Y-117056000D01*
X163746184Y-117056000D01*
X163581772Y-117023297D01*
X163426900Y-116959147D01*
X163287519Y-116866015D01*
X163168985Y-116747481D01*
X163075853Y-116608100D01*
X163011703Y-116453228D01*
X162979000Y-116288816D01*
X162979000Y-116121184D01*
X163011703Y-115956772D01*
X163075853Y-115801900D01*
X163168985Y-115662519D01*
X163287519Y-115543985D01*
X163426900Y-115450853D01*
X163581772Y-115386703D01*
X163746184Y-115354000D01*
X163913816Y-115354000D01*
X164078228Y-115386703D01*
X164078228Y-115386703D01*
G37*
G36*
X151296823Y-115366313D02*
G01*
X151457242Y-115414976D01*
X151524361Y-115450852D01*
X151605078Y-115493996D01*
X151734659Y-115600341D01*
X151841004Y-115729922D01*
X151841005Y-115729924D01*
X151920024Y-115877758D01*
X151968687Y-116038177D01*
X151985117Y-116205000D01*
X151968687Y-116371823D01*
X151920024Y-116532242D01*
X151879477Y-116608100D01*
X151841004Y-116680078D01*
X151734659Y-116809659D01*
X151605078Y-116916004D01*
X151605076Y-116916005D01*
X151457242Y-116995024D01*
X151296823Y-117043687D01*
X151171804Y-117056000D01*
X151088196Y-117056000D01*
X150963177Y-117043687D01*
X150802758Y-116995024D01*
X150654924Y-116916005D01*
X150654922Y-116916004D01*
X150525341Y-116809659D01*
X150418996Y-116680078D01*
X150380523Y-116608100D01*
X150339976Y-116532242D01*
X150291313Y-116371823D01*
X150274883Y-116205000D01*
X150291313Y-116038177D01*
X150339976Y-115877758D01*
X150418995Y-115729924D01*
X150418996Y-115729922D01*
X150525341Y-115600341D01*
X150654922Y-115493996D01*
X150735639Y-115450852D01*
X150802758Y-115414976D01*
X150963177Y-115366313D01*
X151088196Y-115354000D01*
X151171804Y-115354000D01*
X151296823Y-115366313D01*
X151296823Y-115366313D01*
G37*
G36*
X158916823Y-115366313D02*
G01*
X159077242Y-115414976D01*
X159144361Y-115450852D01*
X159225078Y-115493996D01*
X159354659Y-115600341D01*
X159461004Y-115729922D01*
X159461005Y-115729924D01*
X159540024Y-115877758D01*
X159588687Y-116038177D01*
X159605117Y-116205000D01*
X159588687Y-116371823D01*
X159540024Y-116532242D01*
X159499477Y-116608100D01*
X159461004Y-116680078D01*
X159354659Y-116809659D01*
X159225078Y-116916004D01*
X159225076Y-116916005D01*
X159077242Y-116995024D01*
X158916823Y-117043687D01*
X158791804Y-117056000D01*
X158708196Y-117056000D01*
X158583177Y-117043687D01*
X158422758Y-116995024D01*
X158274924Y-116916005D01*
X158274922Y-116916004D01*
X158145341Y-116809659D01*
X158038996Y-116680078D01*
X158000523Y-116608100D01*
X157959976Y-116532242D01*
X157911313Y-116371823D01*
X157894883Y-116205000D01*
X157911313Y-116038177D01*
X157959976Y-115877758D01*
X158038995Y-115729924D01*
X158038996Y-115729922D01*
X158145341Y-115600341D01*
X158274922Y-115493996D01*
X158355639Y-115450852D01*
X158422758Y-115414976D01*
X158583177Y-115366313D01*
X158708196Y-115354000D01*
X158791804Y-115354000D01*
X158916823Y-115366313D01*
X158916823Y-115366313D01*
G37*
G36*
X171616823Y-115366313D02*
G01*
X171777242Y-115414976D01*
X171844361Y-115450852D01*
X171925078Y-115493996D01*
X172054659Y-115600341D01*
X172161004Y-115729922D01*
X172161005Y-115729924D01*
X172240024Y-115877758D01*
X172288687Y-116038177D01*
X172305117Y-116205000D01*
X172288687Y-116371823D01*
X172240024Y-116532242D01*
X172199477Y-116608100D01*
X172161004Y-116680078D01*
X172054659Y-116809659D01*
X171925078Y-116916004D01*
X171925076Y-116916005D01*
X171777242Y-116995024D01*
X171616823Y-117043687D01*
X171491804Y-117056000D01*
X171408196Y-117056000D01*
X171283177Y-117043687D01*
X171122758Y-116995024D01*
X170974924Y-116916005D01*
X170974922Y-116916004D01*
X170845341Y-116809659D01*
X170738996Y-116680078D01*
X170700523Y-116608100D01*
X170659976Y-116532242D01*
X170611313Y-116371823D01*
X170594883Y-116205000D01*
X170611313Y-116038177D01*
X170659976Y-115877758D01*
X170738995Y-115729924D01*
X170738996Y-115729922D01*
X170845341Y-115600341D01*
X170974922Y-115493996D01*
X171055639Y-115450852D01*
X171122758Y-115414976D01*
X171283177Y-115366313D01*
X171408196Y-115354000D01*
X171491804Y-115354000D01*
X171616823Y-115366313D01*
X171616823Y-115366313D01*
G37*
G36*
X153272142Y-110343242D02*
G01*
X153420101Y-110404529D01*
X153553255Y-110493499D01*
X153666501Y-110606745D01*
X153755471Y-110739899D01*
X153816758Y-110887858D01*
X153848000Y-111044925D01*
X153848000Y-111205075D01*
X153816758Y-111362142D01*
X153755471Y-111510101D01*
X153666501Y-111643255D01*
X153553255Y-111756501D01*
X153420101Y-111845471D01*
X153272142Y-111906758D01*
X153115075Y-111938000D01*
X152954925Y-111938000D01*
X152797858Y-111906758D01*
X152649899Y-111845471D01*
X152516745Y-111756501D01*
X152403499Y-111643255D01*
X152314529Y-111510101D01*
X152253242Y-111362142D01*
X152222000Y-111205075D01*
X152222000Y-111044925D01*
X152253242Y-110887858D01*
X152314529Y-110739899D01*
X152403499Y-110606745D01*
X152516745Y-110493499D01*
X152649899Y-110404529D01*
X152797858Y-110343242D01*
X152954925Y-110312000D01*
X153115075Y-110312000D01*
X153272142Y-110343242D01*
X153272142Y-110343242D01*
G37*
G36*
X178701000Y-111391000D02*
G01*
X176899000Y-111391000D01*
X176899000Y-109589000D01*
X178701000Y-109589000D01*
X178701000Y-111391000D01*
X178701000Y-111391000D01*
G37*
G36*
X164078228Y-109671703D02*
G01*
X164233100Y-109735853D01*
X164372481Y-109828985D01*
X164491015Y-109947519D01*
X164584147Y-110086900D01*
X164648297Y-110241772D01*
X164681000Y-110406184D01*
X164681000Y-110573816D01*
X164648297Y-110738228D01*
X164584147Y-110893100D01*
X164491015Y-111032481D01*
X164372481Y-111151015D01*
X164233100Y-111244147D01*
X164078228Y-111308297D01*
X163913816Y-111341000D01*
X163746184Y-111341000D01*
X163581772Y-111308297D01*
X163426900Y-111244147D01*
X163287519Y-111151015D01*
X163168985Y-111032481D01*
X163075853Y-110893100D01*
X163011703Y-110738228D01*
X162979000Y-110573816D01*
X162979000Y-110406184D01*
X163011703Y-110241772D01*
X163075853Y-110086900D01*
X163168985Y-109947519D01*
X163287519Y-109828985D01*
X163426900Y-109735853D01*
X163581772Y-109671703D01*
X163746184Y-109639000D01*
X163913816Y-109639000D01*
X164078228Y-109671703D01*
X164078228Y-109671703D01*
G37*
G36*
X169793228Y-107726703D02*
G01*
X169948100Y-107790853D01*
X170087481Y-107883985D01*
X170206015Y-108002519D01*
X170299147Y-108141900D01*
X170363297Y-108296772D01*
X170396000Y-108461184D01*
X170396000Y-108628816D01*
X170363297Y-108793228D01*
X170299147Y-108948100D01*
X170206015Y-109087481D01*
X170087481Y-109206015D01*
X169948100Y-109299147D01*
X169793228Y-109363297D01*
X169628816Y-109396000D01*
X169461184Y-109396000D01*
X169296772Y-109363297D01*
X169141900Y-109299147D01*
X169002519Y-109206015D01*
X168883985Y-109087481D01*
X168790853Y-108948100D01*
X168726703Y-108793228D01*
X168694000Y-108628816D01*
X168694000Y-108461184D01*
X168726703Y-108296772D01*
X168790853Y-108141900D01*
X168883985Y-108002519D01*
X169002519Y-107883985D01*
X169141900Y-107790853D01*
X169296772Y-107726703D01*
X169461184Y-107694000D01*
X169628816Y-107694000D01*
X169793228Y-107726703D01*
X169793228Y-107726703D01*
G37*
G36*
X177910442Y-107055518D02*
G01*
X177976627Y-107062037D01*
X178146466Y-107113557D01*
X178302991Y-107197222D01*
X178338729Y-107226552D01*
X178440186Y-107309814D01*
X178523448Y-107411271D01*
X178552778Y-107447009D01*
X178636443Y-107603534D01*
X178687963Y-107773373D01*
X178705359Y-107950000D01*
X178687963Y-108126627D01*
X178636443Y-108296466D01*
X178636442Y-108296468D01*
X178594611Y-108374728D01*
X178552778Y-108452991D01*
X178546054Y-108461184D01*
X178440186Y-108590186D01*
X178338729Y-108673448D01*
X178302991Y-108702778D01*
X178146466Y-108786443D01*
X177976627Y-108837963D01*
X177910442Y-108844482D01*
X177844260Y-108851000D01*
X177755740Y-108851000D01*
X177689558Y-108844482D01*
X177623373Y-108837963D01*
X177453534Y-108786443D01*
X177297009Y-108702778D01*
X177261271Y-108673448D01*
X177159814Y-108590186D01*
X177053946Y-108461184D01*
X177047222Y-108452991D01*
X177005389Y-108374728D01*
X176963558Y-108296468D01*
X176963557Y-108296466D01*
X176912037Y-108126627D01*
X176894641Y-107950000D01*
X176912037Y-107773373D01*
X176963557Y-107603534D01*
X177047222Y-107447009D01*
X177076552Y-107411271D01*
X177159814Y-107309814D01*
X177261271Y-107226552D01*
X177297009Y-107197222D01*
X177453534Y-107113557D01*
X177623373Y-107062037D01*
X177689558Y-107055518D01*
X177755740Y-107049000D01*
X177844260Y-107049000D01*
X177910442Y-107055518D01*
X177910442Y-107055518D01*
G37*
G36*
X170396000Y-106896000D02*
G01*
X168694000Y-106896000D01*
X168694000Y-105194000D01*
X170396000Y-105194000D01*
X170396000Y-106896000D01*
X170396000Y-106896000D01*
G37*
G36*
X153272142Y-105263242D02*
G01*
X153420101Y-105324529D01*
X153553255Y-105413499D01*
X153666501Y-105526745D01*
X153755471Y-105659899D01*
X153816758Y-105807858D01*
X153848000Y-105964925D01*
X153848000Y-106125075D01*
X153816758Y-106282142D01*
X153755471Y-106430101D01*
X153666501Y-106563255D01*
X153553255Y-106676501D01*
X153420101Y-106765471D01*
X153272142Y-106826758D01*
X153115075Y-106858000D01*
X152954925Y-106858000D01*
X152797858Y-106826758D01*
X152649899Y-106765471D01*
X152516745Y-106676501D01*
X152403499Y-106563255D01*
X152314529Y-106430101D01*
X152253242Y-106282142D01*
X152222000Y-106125075D01*
X152222000Y-105964925D01*
X152253242Y-105807858D01*
X152314529Y-105659899D01*
X152403499Y-105526745D01*
X152516745Y-105413499D01*
X152649899Y-105324529D01*
X152797858Y-105263242D01*
X152954925Y-105232000D01*
X153115075Y-105232000D01*
X153272142Y-105263242D01*
X153272142Y-105263242D01*
G37*
G36*
X163996823Y-102031313D02*
G01*
X164157242Y-102079976D01*
X164289906Y-102150886D01*
X164305078Y-102158996D01*
X164434659Y-102265341D01*
X164541004Y-102394922D01*
X164541005Y-102394924D01*
X164620024Y-102542758D01*
X164668687Y-102703177D01*
X164685117Y-102870000D01*
X164668687Y-103036823D01*
X164620024Y-103197242D01*
X164549114Y-103329906D01*
X164541004Y-103345078D01*
X164434659Y-103474659D01*
X164305078Y-103581004D01*
X164305076Y-103581005D01*
X164157242Y-103660024D01*
X163996823Y-103708687D01*
X163871804Y-103721000D01*
X163788196Y-103721000D01*
X163663177Y-103708687D01*
X163502758Y-103660024D01*
X163354924Y-103581005D01*
X163354922Y-103581004D01*
X163225341Y-103474659D01*
X163118996Y-103345078D01*
X163110886Y-103329906D01*
X163039976Y-103197242D01*
X162991313Y-103036823D01*
X162974883Y-102870000D01*
X162991313Y-102703177D01*
X163039976Y-102542758D01*
X163118995Y-102394924D01*
X163118996Y-102394922D01*
X163225341Y-102265341D01*
X163354922Y-102158996D01*
X163370094Y-102150886D01*
X163502758Y-102079976D01*
X163663177Y-102031313D01*
X163788196Y-102019000D01*
X163871804Y-102019000D01*
X163996823Y-102031313D01*
X163996823Y-102031313D01*
G37*
G36*
X177910442Y-101340518D02*
G01*
X177976627Y-101347037D01*
X178146466Y-101398557D01*
X178302991Y-101482222D01*
X178338729Y-101511552D01*
X178440186Y-101594814D01*
X178514585Y-101685471D01*
X178552778Y-101732009D01*
X178636443Y-101888534D01*
X178687963Y-102058373D01*
X178705359Y-102235000D01*
X178687963Y-102411627D01*
X178636443Y-102581466D01*
X178552778Y-102737991D01*
X178523448Y-102773729D01*
X178440186Y-102875186D01*
X178338729Y-102958448D01*
X178302991Y-102987778D01*
X178146466Y-103071443D01*
X177976627Y-103122963D01*
X177910442Y-103129482D01*
X177844260Y-103136000D01*
X177755740Y-103136000D01*
X177689558Y-103129482D01*
X177623373Y-103122963D01*
X177453534Y-103071443D01*
X177297009Y-102987778D01*
X177261271Y-102958448D01*
X177159814Y-102875186D01*
X177076552Y-102773729D01*
X177047222Y-102737991D01*
X176963557Y-102581466D01*
X176912037Y-102411627D01*
X176894641Y-102235000D01*
X176912037Y-102058373D01*
X176963557Y-101888534D01*
X177047222Y-101732009D01*
X177085415Y-101685471D01*
X177159814Y-101594814D01*
X177261271Y-101511552D01*
X177297009Y-101482222D01*
X177453534Y-101398557D01*
X177623373Y-101347037D01*
X177689558Y-101340518D01*
X177755740Y-101334000D01*
X177844260Y-101334000D01*
X177910442Y-101340518D01*
X177910442Y-101340518D01*
G37*
G36*
X153272142Y-100183242D02*
G01*
X153420101Y-100244529D01*
X153553255Y-100333499D01*
X153666501Y-100446745D01*
X153755471Y-100579899D01*
X153816758Y-100727858D01*
X153848000Y-100884925D01*
X153848000Y-101045075D01*
X153816758Y-101202142D01*
X153755471Y-101350101D01*
X153666501Y-101483255D01*
X153553255Y-101596501D01*
X153420101Y-101685471D01*
X153272142Y-101746758D01*
X153115075Y-101778000D01*
X152954925Y-101778000D01*
X152797858Y-101746758D01*
X152649899Y-101685471D01*
X152516745Y-101596501D01*
X152403499Y-101483255D01*
X152314529Y-101350101D01*
X152253242Y-101202142D01*
X152222000Y-101045075D01*
X152222000Y-100884925D01*
X152253242Y-100727858D01*
X152314529Y-100579899D01*
X152403499Y-100446745D01*
X152516745Y-100333499D01*
X152649899Y-100244529D01*
X152797858Y-100183242D01*
X152954925Y-100152000D01*
X153115075Y-100152000D01*
X153272142Y-100183242D01*
X153272142Y-100183242D01*
G37*
G36*
X178701000Y-100596000D02*
G01*
X176899000Y-100596000D01*
X176899000Y-98794000D01*
X178701000Y-98794000D01*
X178701000Y-100596000D01*
X178701000Y-100596000D01*
G37*
M02*
