G04 #@! TF.GenerationSoftware,KiCad,Pcbnew,(5.1.2)-2*
G04 #@! TF.CreationDate,2019-11-18T22:52:37-06:00*
G04 #@! TF.ProjectId,Temporizador_V0,54656d70-6f72-4697-9a61-646f725f5630,rev?*
G04 #@! TF.SameCoordinates,Original*
G04 #@! TF.FileFunction,Copper,L2,Bot*
G04 #@! TF.FilePolarity,Positive*
%FSLAX46Y46*%
G04 Gerber Fmt 4.6, Leading zero omitted, Abs format (unit mm)*
G04 Created by KiCad (PCBNEW (5.1.2)-2) date 2019-11-18 22:52:37*
%MOMM*%
%LPD*%
G04 APERTURE LIST*
%ADD10C,1.524000*%
%ADD11O,1.600000X1.600000*%
%ADD12R,1.600000X1.600000*%
%ADD13C,1.600000*%
%ADD14O,1.700000X1.700000*%
%ADD15R,1.700000X1.700000*%
%ADD16C,1.800000*%
%ADD17R,1.800000X1.800000*%
%ADD18C,0.250000*%
%ADD19C,0.254000*%
G04 APERTURE END LIST*
D10*
X153035000Y-100965000D03*
X153035000Y-106045000D03*
X153035000Y-111125000D03*
D11*
X151130000Y-123825000D03*
X158750000Y-116205000D03*
X151130000Y-121285000D03*
X158750000Y-118745000D03*
X151130000Y-118745000D03*
X158750000Y-121285000D03*
X151130000Y-116205000D03*
D12*
X158750000Y-123825000D03*
D11*
X163830000Y-122555000D03*
D13*
X171450000Y-122555000D03*
D11*
X171450000Y-116205000D03*
D13*
X163830000Y-116205000D03*
D11*
X163830000Y-102870000D03*
D13*
X163830000Y-110490000D03*
D14*
X177800000Y-102235000D03*
D15*
X177800000Y-99695000D03*
D14*
X177800000Y-107950000D03*
D15*
X177800000Y-110490000D03*
D14*
X156210000Y-127635000D03*
D15*
X153670000Y-127635000D03*
D16*
X177800000Y-123190000D03*
D17*
X175260000Y-123190000D03*
D16*
X175260000Y-116205000D03*
D17*
X177800000Y-116205000D03*
D13*
X169545000Y-108545000D03*
D12*
X169545000Y-106045000D03*
D18*
X169585000Y-107950000D02*
X169545000Y-107910000D01*
X153035000Y-106045000D02*
X153035000Y-111125000D01*
X149860000Y-118745000D02*
X151130000Y-118745000D01*
X149225000Y-118110000D02*
X149860000Y-118745000D01*
X149225000Y-113030000D02*
X149225000Y-118110000D01*
X153035000Y-111125000D02*
X151130000Y-111125000D01*
X151130000Y-111125000D02*
X149225000Y-113030000D01*
X156210000Y-121285000D02*
X158750000Y-121285000D01*
X151130000Y-118745000D02*
X153670000Y-118745000D01*
X153670000Y-118745000D02*
X156210000Y-121285000D01*
X169545000Y-106045000D02*
X153035000Y-106045000D01*
X174625000Y-106045000D02*
X169545000Y-106045000D01*
X175260000Y-105410000D02*
X174625000Y-106045000D01*
X175260000Y-100330000D02*
X175260000Y-105410000D01*
X177800000Y-99695000D02*
X175895000Y-99695000D01*
X175895000Y-99695000D02*
X175260000Y-100330000D01*
X171450000Y-116205000D02*
X175260000Y-116205000D01*
X177800000Y-110490000D02*
X177800000Y-116205000D01*
X158750000Y-118745000D02*
X177165000Y-118745000D01*
X177800000Y-118110000D02*
X177800000Y-116205000D01*
X177165000Y-118745000D02*
X177800000Y-118110000D01*
X174625000Y-122555000D02*
X175260000Y-123190000D01*
X153670000Y-126365000D02*
X153670000Y-127635000D01*
X151130000Y-123825000D02*
X153670000Y-126365000D01*
X163830000Y-110490000D02*
X163830000Y-116205000D01*
X158750000Y-116205000D02*
X163830000Y-116205000D01*
X153035000Y-100965000D02*
X158115000Y-100965000D01*
X158115000Y-100965000D02*
X159385000Y-102235000D01*
X159385000Y-102235000D02*
X160020000Y-102870000D01*
X163830000Y-102870000D02*
X160020000Y-102870000D01*
X149860000Y-121285000D02*
X151130000Y-121285000D01*
X148590000Y-120015000D02*
X149860000Y-121285000D01*
X148590000Y-103505000D02*
X148590000Y-120015000D01*
X153035000Y-100965000D02*
X151130000Y-100965000D01*
X151130000Y-100965000D02*
X148590000Y-103505000D01*
D19*
G36*
X180315000Y-140310000D02*
G01*
X146710000Y-140310000D01*
X146710000Y-103505000D01*
X147826324Y-103505000D01*
X147830000Y-103542322D01*
X147830001Y-119977667D01*
X147826324Y-120015000D01*
X147830001Y-120052333D01*
X147832449Y-120077182D01*
X147840998Y-120163985D01*
X147884454Y-120307246D01*
X147955026Y-120439276D01*
X147991648Y-120483899D01*
X148050000Y-120555001D01*
X148078998Y-120578799D01*
X149296201Y-121796003D01*
X149319999Y-121825001D01*
X149435724Y-121919974D01*
X149567753Y-121990546D01*
X149711014Y-122034003D01*
X149822667Y-122045000D01*
X149822676Y-122045000D01*
X149859999Y-122048676D01*
X149897322Y-122045000D01*
X149909099Y-122045000D01*
X149931068Y-122086101D01*
X150110392Y-122304608D01*
X150328899Y-122483932D01*
X150461858Y-122555000D01*
X150328899Y-122626068D01*
X150110392Y-122805392D01*
X149931068Y-123023899D01*
X149797818Y-123273192D01*
X149715764Y-123543691D01*
X149688057Y-123825000D01*
X149715764Y-124106309D01*
X149797818Y-124376808D01*
X149931068Y-124626101D01*
X150110392Y-124844608D01*
X150328899Y-125023932D01*
X150578192Y-125157182D01*
X150848691Y-125239236D01*
X151059508Y-125260000D01*
X151200492Y-125260000D01*
X151411309Y-125239236D01*
X151455906Y-125225708D01*
X152477988Y-126247791D01*
X152465506Y-126254463D01*
X152368815Y-126333815D01*
X152289463Y-126430506D01*
X152230498Y-126540820D01*
X152194188Y-126660518D01*
X152181928Y-126785000D01*
X152181928Y-128485000D01*
X152194188Y-128609482D01*
X152230498Y-128729180D01*
X152289463Y-128839494D01*
X152368815Y-128936185D01*
X152465506Y-129015537D01*
X152575820Y-129074502D01*
X152695518Y-129110812D01*
X152820000Y-129123072D01*
X154520000Y-129123072D01*
X154644482Y-129110812D01*
X154764180Y-129074502D01*
X154874494Y-129015537D01*
X154971185Y-128936185D01*
X155050537Y-128839494D01*
X155109502Y-128729180D01*
X155133966Y-128648534D01*
X155209731Y-128732588D01*
X155443080Y-128906641D01*
X155705901Y-129031825D01*
X155853110Y-129076476D01*
X156083000Y-128955155D01*
X156083000Y-127762000D01*
X156337000Y-127762000D01*
X156337000Y-128955155D01*
X156566890Y-129076476D01*
X156714099Y-129031825D01*
X156976920Y-128906641D01*
X157210269Y-128732588D01*
X157405178Y-128516355D01*
X157554157Y-128266252D01*
X157651481Y-127991891D01*
X157530814Y-127762000D01*
X156337000Y-127762000D01*
X156083000Y-127762000D01*
X156063000Y-127762000D01*
X156063000Y-127508000D01*
X156083000Y-127508000D01*
X156083000Y-126314845D01*
X156337000Y-126314845D01*
X156337000Y-127508000D01*
X157530814Y-127508000D01*
X157651481Y-127278109D01*
X157554157Y-127003748D01*
X157405178Y-126753645D01*
X157210269Y-126537412D01*
X156976920Y-126363359D01*
X156714099Y-126238175D01*
X156566890Y-126193524D01*
X156337000Y-126314845D01*
X156083000Y-126314845D01*
X155853110Y-126193524D01*
X155705901Y-126238175D01*
X155443080Y-126363359D01*
X155209731Y-126537412D01*
X155133966Y-126621466D01*
X155109502Y-126540820D01*
X155050537Y-126430506D01*
X154971185Y-126333815D01*
X154874494Y-126254463D01*
X154764180Y-126195498D01*
X154644482Y-126159188D01*
X154520000Y-126146928D01*
X154398046Y-126146928D01*
X154375546Y-126072753D01*
X154304974Y-125940724D01*
X154291811Y-125924685D01*
X154233799Y-125853996D01*
X154233795Y-125853992D01*
X154210001Y-125824999D01*
X154181009Y-125801206D01*
X153004803Y-124625000D01*
X157311928Y-124625000D01*
X157324188Y-124749482D01*
X157360498Y-124869180D01*
X157419463Y-124979494D01*
X157498815Y-125076185D01*
X157595506Y-125155537D01*
X157705820Y-125214502D01*
X157825518Y-125250812D01*
X157950000Y-125263072D01*
X158464250Y-125260000D01*
X158623000Y-125101250D01*
X158623000Y-123952000D01*
X158877000Y-123952000D01*
X158877000Y-125101250D01*
X159035750Y-125260000D01*
X159550000Y-125263072D01*
X159674482Y-125250812D01*
X159794180Y-125214502D01*
X159904494Y-125155537D01*
X160001185Y-125076185D01*
X160080537Y-124979494D01*
X160139502Y-124869180D01*
X160175812Y-124749482D01*
X160188072Y-124625000D01*
X160185000Y-124110750D01*
X160026250Y-123952000D01*
X158877000Y-123952000D01*
X158623000Y-123952000D01*
X157473750Y-123952000D01*
X157315000Y-124110750D01*
X157311928Y-124625000D01*
X153004803Y-124625000D01*
X152530708Y-124150906D01*
X152544236Y-124106309D01*
X152571943Y-123825000D01*
X152544236Y-123543691D01*
X152462182Y-123273192D01*
X152328932Y-123023899D01*
X152149608Y-122805392D01*
X151931101Y-122626068D01*
X151798142Y-122555000D01*
X151931101Y-122483932D01*
X152149608Y-122304608D01*
X152328932Y-122086101D01*
X152462182Y-121836808D01*
X152544236Y-121566309D01*
X152571943Y-121285000D01*
X152544236Y-121003691D01*
X152462182Y-120733192D01*
X152328932Y-120483899D01*
X152149608Y-120265392D01*
X151931101Y-120086068D01*
X151798142Y-120015000D01*
X151931101Y-119943932D01*
X152149608Y-119764608D01*
X152328932Y-119546101D01*
X152350901Y-119505000D01*
X153355199Y-119505000D01*
X155646205Y-121796008D01*
X155669999Y-121825001D01*
X155698992Y-121848795D01*
X155698996Y-121848799D01*
X155769685Y-121906811D01*
X155785724Y-121919974D01*
X155917753Y-121990546D01*
X156061014Y-122034003D01*
X156172667Y-122045000D01*
X156172676Y-122045000D01*
X156209999Y-122048676D01*
X156247322Y-122045000D01*
X157529099Y-122045000D01*
X157551068Y-122086101D01*
X157730392Y-122304608D01*
X157843482Y-122397419D01*
X157825518Y-122399188D01*
X157705820Y-122435498D01*
X157595506Y-122494463D01*
X157498815Y-122573815D01*
X157419463Y-122670506D01*
X157360498Y-122780820D01*
X157324188Y-122900518D01*
X157311928Y-123025000D01*
X157315000Y-123539250D01*
X157473750Y-123698000D01*
X158623000Y-123698000D01*
X158623000Y-123678000D01*
X158877000Y-123678000D01*
X158877000Y-123698000D01*
X160026250Y-123698000D01*
X160185000Y-123539250D01*
X160188072Y-123025000D01*
X160176159Y-122904039D01*
X162438096Y-122904039D01*
X162478754Y-123038087D01*
X162598963Y-123292420D01*
X162766481Y-123518414D01*
X162974869Y-123707385D01*
X163216119Y-123852070D01*
X163480960Y-123946909D01*
X163703000Y-123825624D01*
X163703000Y-122682000D01*
X163957000Y-122682000D01*
X163957000Y-123825624D01*
X164179040Y-123946909D01*
X164443881Y-123852070D01*
X164685131Y-123707385D01*
X164893519Y-123518414D01*
X165061037Y-123292420D01*
X165181246Y-123038087D01*
X165221904Y-122904039D01*
X165099915Y-122682000D01*
X163957000Y-122682000D01*
X163703000Y-122682000D01*
X162560085Y-122682000D01*
X162438096Y-122904039D01*
X160176159Y-122904039D01*
X160175812Y-122900518D01*
X160139502Y-122780820D01*
X160080537Y-122670506D01*
X160001185Y-122573815D01*
X159904494Y-122494463D01*
X159794180Y-122435498D01*
X159674482Y-122399188D01*
X159656518Y-122397419D01*
X159769608Y-122304608D01*
X159850565Y-122205961D01*
X162438096Y-122205961D01*
X162560085Y-122428000D01*
X163703000Y-122428000D01*
X163703000Y-121284376D01*
X163957000Y-121284376D01*
X163957000Y-122428000D01*
X165099915Y-122428000D01*
X165107790Y-122413665D01*
X170015000Y-122413665D01*
X170015000Y-122696335D01*
X170070147Y-122973574D01*
X170178320Y-123234727D01*
X170335363Y-123469759D01*
X170535241Y-123669637D01*
X170770273Y-123826680D01*
X171031426Y-123934853D01*
X171308665Y-123990000D01*
X171591335Y-123990000D01*
X171868574Y-123934853D01*
X172129727Y-123826680D01*
X172364759Y-123669637D01*
X172564637Y-123469759D01*
X172721680Y-123234727D01*
X172829853Y-122973574D01*
X172885000Y-122696335D01*
X172885000Y-122413665D01*
X172860402Y-122290000D01*
X173721928Y-122290000D01*
X173721928Y-124090000D01*
X173734188Y-124214482D01*
X173770498Y-124334180D01*
X173829463Y-124444494D01*
X173908815Y-124541185D01*
X174005506Y-124620537D01*
X174115820Y-124679502D01*
X174235518Y-124715812D01*
X174360000Y-124728072D01*
X176160000Y-124728072D01*
X176284482Y-124715812D01*
X176404180Y-124679502D01*
X176514494Y-124620537D01*
X176611185Y-124541185D01*
X176690537Y-124444494D01*
X176749502Y-124334180D01*
X176755056Y-124315873D01*
X176821495Y-124382312D01*
X177072905Y-124550299D01*
X177352257Y-124666011D01*
X177648816Y-124725000D01*
X177951184Y-124725000D01*
X178247743Y-124666011D01*
X178527095Y-124550299D01*
X178778505Y-124382312D01*
X178992312Y-124168505D01*
X179160299Y-123917095D01*
X179276011Y-123637743D01*
X179335000Y-123341184D01*
X179335000Y-123038816D01*
X179276011Y-122742257D01*
X179160299Y-122462905D01*
X178992312Y-122211495D01*
X178778505Y-121997688D01*
X178527095Y-121829701D01*
X178247743Y-121713989D01*
X177951184Y-121655000D01*
X177648816Y-121655000D01*
X177352257Y-121713989D01*
X177072905Y-121829701D01*
X176821495Y-121997688D01*
X176755056Y-122064127D01*
X176749502Y-122045820D01*
X176690537Y-121935506D01*
X176611185Y-121838815D01*
X176514494Y-121759463D01*
X176404180Y-121700498D01*
X176284482Y-121664188D01*
X176160000Y-121651928D01*
X174360000Y-121651928D01*
X174235518Y-121664188D01*
X174115820Y-121700498D01*
X174005506Y-121759463D01*
X173908815Y-121838815D01*
X173829463Y-121935506D01*
X173770498Y-122045820D01*
X173734188Y-122165518D01*
X173721928Y-122290000D01*
X172860402Y-122290000D01*
X172829853Y-122136426D01*
X172721680Y-121875273D01*
X172564637Y-121640241D01*
X172364759Y-121440363D01*
X172129727Y-121283320D01*
X171868574Y-121175147D01*
X171591335Y-121120000D01*
X171308665Y-121120000D01*
X171031426Y-121175147D01*
X170770273Y-121283320D01*
X170535241Y-121440363D01*
X170335363Y-121640241D01*
X170178320Y-121875273D01*
X170070147Y-122136426D01*
X170015000Y-122413665D01*
X165107790Y-122413665D01*
X165221904Y-122205961D01*
X165181246Y-122071913D01*
X165061037Y-121817580D01*
X164893519Y-121591586D01*
X164685131Y-121402615D01*
X164443881Y-121257930D01*
X164179040Y-121163091D01*
X163957000Y-121284376D01*
X163703000Y-121284376D01*
X163480960Y-121163091D01*
X163216119Y-121257930D01*
X162974869Y-121402615D01*
X162766481Y-121591586D01*
X162598963Y-121817580D01*
X162478754Y-122071913D01*
X162438096Y-122205961D01*
X159850565Y-122205961D01*
X159948932Y-122086101D01*
X160082182Y-121836808D01*
X160164236Y-121566309D01*
X160191943Y-121285000D01*
X160164236Y-121003691D01*
X160082182Y-120733192D01*
X159948932Y-120483899D01*
X159769608Y-120265392D01*
X159551101Y-120086068D01*
X159418142Y-120015000D01*
X159551101Y-119943932D01*
X159769608Y-119764608D01*
X159948932Y-119546101D01*
X159970901Y-119505000D01*
X177127678Y-119505000D01*
X177165000Y-119508676D01*
X177202322Y-119505000D01*
X177202333Y-119505000D01*
X177313986Y-119494003D01*
X177457247Y-119450546D01*
X177589276Y-119379974D01*
X177705001Y-119285001D01*
X177728803Y-119255998D01*
X178311004Y-118673798D01*
X178340001Y-118650001D01*
X178434974Y-118534276D01*
X178505546Y-118402247D01*
X178549003Y-118258986D01*
X178560000Y-118147333D01*
X178560000Y-118147332D01*
X178563677Y-118110000D01*
X178560000Y-118072667D01*
X178560000Y-117743072D01*
X178700000Y-117743072D01*
X178824482Y-117730812D01*
X178944180Y-117694502D01*
X179054494Y-117635537D01*
X179151185Y-117556185D01*
X179230537Y-117459494D01*
X179289502Y-117349180D01*
X179325812Y-117229482D01*
X179338072Y-117105000D01*
X179338072Y-115305000D01*
X179325812Y-115180518D01*
X179289502Y-115060820D01*
X179230537Y-114950506D01*
X179151185Y-114853815D01*
X179054494Y-114774463D01*
X178944180Y-114715498D01*
X178824482Y-114679188D01*
X178700000Y-114666928D01*
X178560000Y-114666928D01*
X178560000Y-111978072D01*
X178650000Y-111978072D01*
X178774482Y-111965812D01*
X178894180Y-111929502D01*
X179004494Y-111870537D01*
X179101185Y-111791185D01*
X179180537Y-111694494D01*
X179239502Y-111584180D01*
X179275812Y-111464482D01*
X179288072Y-111340000D01*
X179288072Y-109640000D01*
X179275812Y-109515518D01*
X179239502Y-109395820D01*
X179180537Y-109285506D01*
X179101185Y-109188815D01*
X179004494Y-109109463D01*
X178894180Y-109050498D01*
X178813534Y-109026034D01*
X178897588Y-108950269D01*
X179071641Y-108716920D01*
X179196825Y-108454099D01*
X179241476Y-108306890D01*
X179120155Y-108077000D01*
X177927000Y-108077000D01*
X177927000Y-108097000D01*
X177673000Y-108097000D01*
X177673000Y-108077000D01*
X176479845Y-108077000D01*
X176358524Y-108306890D01*
X176403175Y-108454099D01*
X176528359Y-108716920D01*
X176702412Y-108950269D01*
X176786466Y-109026034D01*
X176705820Y-109050498D01*
X176595506Y-109109463D01*
X176498815Y-109188815D01*
X176419463Y-109285506D01*
X176360498Y-109395820D01*
X176324188Y-109515518D01*
X176311928Y-109640000D01*
X176311928Y-111340000D01*
X176324188Y-111464482D01*
X176360498Y-111584180D01*
X176419463Y-111694494D01*
X176498815Y-111791185D01*
X176595506Y-111870537D01*
X176705820Y-111929502D01*
X176825518Y-111965812D01*
X176950000Y-111978072D01*
X177040000Y-111978072D01*
X177040001Y-114666928D01*
X176900000Y-114666928D01*
X176775518Y-114679188D01*
X176655820Y-114715498D01*
X176545506Y-114774463D01*
X176448815Y-114853815D01*
X176369463Y-114950506D01*
X176310498Y-115060820D01*
X176304944Y-115079127D01*
X176238505Y-115012688D01*
X175987095Y-114844701D01*
X175707743Y-114728989D01*
X175411184Y-114670000D01*
X175108816Y-114670000D01*
X174812257Y-114728989D01*
X174532905Y-114844701D01*
X174281495Y-115012688D01*
X174067688Y-115226495D01*
X173921687Y-115445000D01*
X172670901Y-115445000D01*
X172648932Y-115403899D01*
X172469608Y-115185392D01*
X172251101Y-115006068D01*
X172001808Y-114872818D01*
X171731309Y-114790764D01*
X171520492Y-114770000D01*
X171379508Y-114770000D01*
X171168691Y-114790764D01*
X170898192Y-114872818D01*
X170648899Y-115006068D01*
X170430392Y-115185392D01*
X170251068Y-115403899D01*
X170117818Y-115653192D01*
X170035764Y-115923691D01*
X170008057Y-116205000D01*
X170035764Y-116486309D01*
X170117818Y-116756808D01*
X170251068Y-117006101D01*
X170430392Y-117224608D01*
X170648899Y-117403932D01*
X170898192Y-117537182D01*
X171168691Y-117619236D01*
X171379508Y-117640000D01*
X171520492Y-117640000D01*
X171731309Y-117619236D01*
X172001808Y-117537182D01*
X172251101Y-117403932D01*
X172469608Y-117224608D01*
X172648932Y-117006101D01*
X172670901Y-116965000D01*
X173921687Y-116965000D01*
X174067688Y-117183505D01*
X174281495Y-117397312D01*
X174532905Y-117565299D01*
X174812257Y-117681011D01*
X175108816Y-117740000D01*
X175411184Y-117740000D01*
X175707743Y-117681011D01*
X175987095Y-117565299D01*
X176238505Y-117397312D01*
X176304944Y-117330873D01*
X176310498Y-117349180D01*
X176369463Y-117459494D01*
X176448815Y-117556185D01*
X176545506Y-117635537D01*
X176655820Y-117694502D01*
X176775518Y-117730812D01*
X176900000Y-117743072D01*
X177040000Y-117743072D01*
X177040000Y-117795198D01*
X176850199Y-117985000D01*
X159970901Y-117985000D01*
X159948932Y-117943899D01*
X159769608Y-117725392D01*
X159551101Y-117546068D01*
X159418142Y-117475000D01*
X159551101Y-117403932D01*
X159769608Y-117224608D01*
X159948932Y-117006101D01*
X159970901Y-116965000D01*
X162611957Y-116965000D01*
X162715363Y-117119759D01*
X162915241Y-117319637D01*
X163150273Y-117476680D01*
X163411426Y-117584853D01*
X163688665Y-117640000D01*
X163971335Y-117640000D01*
X164248574Y-117584853D01*
X164509727Y-117476680D01*
X164744759Y-117319637D01*
X164944637Y-117119759D01*
X165101680Y-116884727D01*
X165209853Y-116623574D01*
X165265000Y-116346335D01*
X165265000Y-116063665D01*
X165209853Y-115786426D01*
X165101680Y-115525273D01*
X164944637Y-115290241D01*
X164744759Y-115090363D01*
X164590000Y-114986957D01*
X164590000Y-111708043D01*
X164744759Y-111604637D01*
X164944637Y-111404759D01*
X165101680Y-111169727D01*
X165209853Y-110908574D01*
X165265000Y-110631335D01*
X165265000Y-110348665D01*
X165209853Y-110071426D01*
X165101680Y-109810273D01*
X164944637Y-109575241D01*
X164907098Y-109537702D01*
X168731903Y-109537702D01*
X168803486Y-109781671D01*
X169058996Y-109902571D01*
X169333184Y-109971300D01*
X169615512Y-109985217D01*
X169895130Y-109943787D01*
X170161292Y-109848603D01*
X170286514Y-109781671D01*
X170358097Y-109537702D01*
X169545000Y-108724605D01*
X168731903Y-109537702D01*
X164907098Y-109537702D01*
X164744759Y-109375363D01*
X164509727Y-109218320D01*
X164248574Y-109110147D01*
X163971335Y-109055000D01*
X163688665Y-109055000D01*
X163411426Y-109110147D01*
X163150273Y-109218320D01*
X162915241Y-109375363D01*
X162715363Y-109575241D01*
X162558320Y-109810273D01*
X162450147Y-110071426D01*
X162395000Y-110348665D01*
X162395000Y-110631335D01*
X162450147Y-110908574D01*
X162558320Y-111169727D01*
X162715363Y-111404759D01*
X162915241Y-111604637D01*
X163070000Y-111708044D01*
X163070001Y-114986956D01*
X162915241Y-115090363D01*
X162715363Y-115290241D01*
X162611957Y-115445000D01*
X159970901Y-115445000D01*
X159948932Y-115403899D01*
X159769608Y-115185392D01*
X159551101Y-115006068D01*
X159301808Y-114872818D01*
X159031309Y-114790764D01*
X158820492Y-114770000D01*
X158679508Y-114770000D01*
X158468691Y-114790764D01*
X158198192Y-114872818D01*
X157948899Y-115006068D01*
X157730392Y-115185392D01*
X157551068Y-115403899D01*
X157417818Y-115653192D01*
X157335764Y-115923691D01*
X157308057Y-116205000D01*
X157335764Y-116486309D01*
X157417818Y-116756808D01*
X157551068Y-117006101D01*
X157730392Y-117224608D01*
X157948899Y-117403932D01*
X158081858Y-117475000D01*
X157948899Y-117546068D01*
X157730392Y-117725392D01*
X157551068Y-117943899D01*
X157417818Y-118193192D01*
X157335764Y-118463691D01*
X157308057Y-118745000D01*
X157335764Y-119026309D01*
X157417818Y-119296808D01*
X157551068Y-119546101D01*
X157730392Y-119764608D01*
X157948899Y-119943932D01*
X158081858Y-120015000D01*
X157948899Y-120086068D01*
X157730392Y-120265392D01*
X157551068Y-120483899D01*
X157529099Y-120525000D01*
X156524803Y-120525000D01*
X154233804Y-118234003D01*
X154210001Y-118204999D01*
X154094276Y-118110026D01*
X153962247Y-118039454D01*
X153818986Y-117995997D01*
X153707333Y-117985000D01*
X153707322Y-117985000D01*
X153670000Y-117981324D01*
X153632678Y-117985000D01*
X152350901Y-117985000D01*
X152328932Y-117943899D01*
X152149608Y-117725392D01*
X151931101Y-117546068D01*
X151798142Y-117475000D01*
X151931101Y-117403932D01*
X152149608Y-117224608D01*
X152328932Y-117006101D01*
X152462182Y-116756808D01*
X152544236Y-116486309D01*
X152571943Y-116205000D01*
X152544236Y-115923691D01*
X152462182Y-115653192D01*
X152328932Y-115403899D01*
X152149608Y-115185392D01*
X151931101Y-115006068D01*
X151681808Y-114872818D01*
X151411309Y-114790764D01*
X151200492Y-114770000D01*
X151059508Y-114770000D01*
X150848691Y-114790764D01*
X150578192Y-114872818D01*
X150328899Y-115006068D01*
X150110392Y-115185392D01*
X149985000Y-115338183D01*
X149985000Y-113344801D01*
X151444802Y-111885000D01*
X151862659Y-111885000D01*
X151949880Y-112015535D01*
X152144465Y-112210120D01*
X152373273Y-112363005D01*
X152627510Y-112468314D01*
X152897408Y-112522000D01*
X153172592Y-112522000D01*
X153442490Y-112468314D01*
X153696727Y-112363005D01*
X153925535Y-112210120D01*
X154120120Y-112015535D01*
X154273005Y-111786727D01*
X154378314Y-111532490D01*
X154432000Y-111262592D01*
X154432000Y-110987408D01*
X154378314Y-110717510D01*
X154273005Y-110463273D01*
X154120120Y-110234465D01*
X153925535Y-110039880D01*
X153795000Y-109952659D01*
X153795000Y-108615512D01*
X168104783Y-108615512D01*
X168146213Y-108895130D01*
X168241397Y-109161292D01*
X168308329Y-109286514D01*
X168552298Y-109358097D01*
X169365395Y-108545000D01*
X169724605Y-108545000D01*
X170537702Y-109358097D01*
X170781671Y-109286514D01*
X170902571Y-109031004D01*
X170971300Y-108756816D01*
X170985217Y-108474488D01*
X170943787Y-108194870D01*
X170848603Y-107928708D01*
X170781671Y-107803486D01*
X170537702Y-107731903D01*
X169724605Y-108545000D01*
X169365395Y-108545000D01*
X168552298Y-107731903D01*
X168308329Y-107803486D01*
X168187429Y-108058996D01*
X168118700Y-108333184D01*
X168104783Y-108615512D01*
X153795000Y-108615512D01*
X153795000Y-107217341D01*
X153925535Y-107130120D01*
X154120120Y-106935535D01*
X154207341Y-106805000D01*
X168106928Y-106805000D01*
X168106928Y-106845000D01*
X168119188Y-106969482D01*
X168155498Y-107089180D01*
X168214463Y-107199494D01*
X168293815Y-107296185D01*
X168390506Y-107375537D01*
X168500820Y-107434502D01*
X168620518Y-107470812D01*
X168745000Y-107483072D01*
X168752215Y-107483072D01*
X168731903Y-107552298D01*
X169545000Y-108365395D01*
X170317285Y-107593110D01*
X176358524Y-107593110D01*
X176479845Y-107823000D01*
X177673000Y-107823000D01*
X177673000Y-106629186D01*
X177927000Y-106629186D01*
X177927000Y-107823000D01*
X179120155Y-107823000D01*
X179241476Y-107593110D01*
X179196825Y-107445901D01*
X179071641Y-107183080D01*
X178897588Y-106949731D01*
X178681355Y-106754822D01*
X178431252Y-106605843D01*
X178156891Y-106508519D01*
X177927000Y-106629186D01*
X177673000Y-106629186D01*
X177443109Y-106508519D01*
X177168748Y-106605843D01*
X176918645Y-106754822D01*
X176702412Y-106949731D01*
X176528359Y-107183080D01*
X176403175Y-107445901D01*
X176358524Y-107593110D01*
X170317285Y-107593110D01*
X170358097Y-107552298D01*
X170337785Y-107483072D01*
X170345000Y-107483072D01*
X170469482Y-107470812D01*
X170589180Y-107434502D01*
X170699494Y-107375537D01*
X170796185Y-107296185D01*
X170875537Y-107199494D01*
X170934502Y-107089180D01*
X170970812Y-106969482D01*
X170983072Y-106845000D01*
X170983072Y-106805000D01*
X174587678Y-106805000D01*
X174625000Y-106808676D01*
X174662322Y-106805000D01*
X174662333Y-106805000D01*
X174773986Y-106794003D01*
X174917247Y-106750546D01*
X175049276Y-106679974D01*
X175165001Y-106585001D01*
X175188803Y-106555998D01*
X175771002Y-105973800D01*
X175800001Y-105950001D01*
X175894974Y-105834276D01*
X175965546Y-105702247D01*
X176009003Y-105558986D01*
X176020000Y-105447333D01*
X176023677Y-105410000D01*
X176020000Y-105372667D01*
X176020000Y-102591890D01*
X176358524Y-102591890D01*
X176403175Y-102739099D01*
X176528359Y-103001920D01*
X176702412Y-103235269D01*
X176918645Y-103430178D01*
X177168748Y-103579157D01*
X177443109Y-103676481D01*
X177673000Y-103555814D01*
X177673000Y-102362000D01*
X177927000Y-102362000D01*
X177927000Y-103555814D01*
X178156891Y-103676481D01*
X178431252Y-103579157D01*
X178681355Y-103430178D01*
X178897588Y-103235269D01*
X179071641Y-103001920D01*
X179196825Y-102739099D01*
X179241476Y-102591890D01*
X179120155Y-102362000D01*
X177927000Y-102362000D01*
X177673000Y-102362000D01*
X176479845Y-102362000D01*
X176358524Y-102591890D01*
X176020000Y-102591890D01*
X176020000Y-100644801D01*
X176209802Y-100455000D01*
X176311928Y-100455000D01*
X176311928Y-100545000D01*
X176324188Y-100669482D01*
X176360498Y-100789180D01*
X176419463Y-100899494D01*
X176498815Y-100996185D01*
X176595506Y-101075537D01*
X176705820Y-101134502D01*
X176786466Y-101158966D01*
X176702412Y-101234731D01*
X176528359Y-101468080D01*
X176403175Y-101730901D01*
X176358524Y-101878110D01*
X176479845Y-102108000D01*
X177673000Y-102108000D01*
X177673000Y-102088000D01*
X177927000Y-102088000D01*
X177927000Y-102108000D01*
X179120155Y-102108000D01*
X179241476Y-101878110D01*
X179196825Y-101730901D01*
X179071641Y-101468080D01*
X178897588Y-101234731D01*
X178813534Y-101158966D01*
X178894180Y-101134502D01*
X179004494Y-101075537D01*
X179101185Y-100996185D01*
X179180537Y-100899494D01*
X179239502Y-100789180D01*
X179275812Y-100669482D01*
X179288072Y-100545000D01*
X179288072Y-98845000D01*
X179275812Y-98720518D01*
X179239502Y-98600820D01*
X179180537Y-98490506D01*
X179101185Y-98393815D01*
X179004494Y-98314463D01*
X178894180Y-98255498D01*
X178774482Y-98219188D01*
X178650000Y-98206928D01*
X176950000Y-98206928D01*
X176825518Y-98219188D01*
X176705820Y-98255498D01*
X176595506Y-98314463D01*
X176498815Y-98393815D01*
X176419463Y-98490506D01*
X176360498Y-98600820D01*
X176324188Y-98720518D01*
X176311928Y-98845000D01*
X176311928Y-98935000D01*
X175932333Y-98935000D01*
X175895000Y-98931323D01*
X175857667Y-98935000D01*
X175746014Y-98945997D01*
X175602753Y-98989454D01*
X175470724Y-99060026D01*
X175354999Y-99154999D01*
X175331200Y-99183998D01*
X174749002Y-99766197D01*
X174719999Y-99789999D01*
X174664871Y-99857174D01*
X174625026Y-99905724D01*
X174581451Y-99987247D01*
X174554454Y-100037754D01*
X174510997Y-100181015D01*
X174500000Y-100292668D01*
X174500000Y-100292678D01*
X174496324Y-100330000D01*
X174500000Y-100367323D01*
X174500001Y-105095197D01*
X174310199Y-105285000D01*
X170983072Y-105285000D01*
X170983072Y-105245000D01*
X170970812Y-105120518D01*
X170934502Y-105000820D01*
X170875537Y-104890506D01*
X170796185Y-104793815D01*
X170699494Y-104714463D01*
X170589180Y-104655498D01*
X170469482Y-104619188D01*
X170345000Y-104606928D01*
X168745000Y-104606928D01*
X168620518Y-104619188D01*
X168500820Y-104655498D01*
X168390506Y-104714463D01*
X168293815Y-104793815D01*
X168214463Y-104890506D01*
X168155498Y-105000820D01*
X168119188Y-105120518D01*
X168106928Y-105245000D01*
X168106928Y-105285000D01*
X154207341Y-105285000D01*
X154120120Y-105154465D01*
X153925535Y-104959880D01*
X153696727Y-104806995D01*
X153442490Y-104701686D01*
X153172592Y-104648000D01*
X152897408Y-104648000D01*
X152627510Y-104701686D01*
X152373273Y-104806995D01*
X152144465Y-104959880D01*
X151949880Y-105154465D01*
X151796995Y-105383273D01*
X151691686Y-105637510D01*
X151638000Y-105907408D01*
X151638000Y-106182592D01*
X151691686Y-106452490D01*
X151796995Y-106706727D01*
X151949880Y-106935535D01*
X152144465Y-107130120D01*
X152275000Y-107217341D01*
X152275001Y-109952659D01*
X152144465Y-110039880D01*
X151949880Y-110234465D01*
X151862659Y-110365000D01*
X151167323Y-110365000D01*
X151130000Y-110361324D01*
X151092677Y-110365000D01*
X151092667Y-110365000D01*
X150981014Y-110375997D01*
X150837753Y-110419454D01*
X150705724Y-110490026D01*
X150589999Y-110584999D01*
X150566201Y-110613997D01*
X149350000Y-111830199D01*
X149350000Y-103819801D01*
X151444803Y-101725000D01*
X151862659Y-101725000D01*
X151949880Y-101855535D01*
X152144465Y-102050120D01*
X152373273Y-102203005D01*
X152627510Y-102308314D01*
X152897408Y-102362000D01*
X153172592Y-102362000D01*
X153442490Y-102308314D01*
X153696727Y-102203005D01*
X153925535Y-102050120D01*
X154120120Y-101855535D01*
X154207341Y-101725000D01*
X157800199Y-101725000D01*
X158873997Y-102798799D01*
X158874002Y-102798803D01*
X159456200Y-103381002D01*
X159479999Y-103410001D01*
X159595724Y-103504974D01*
X159727753Y-103575546D01*
X159871014Y-103619003D01*
X160020000Y-103633677D01*
X160057333Y-103630000D01*
X162609099Y-103630000D01*
X162631068Y-103671101D01*
X162810392Y-103889608D01*
X163028899Y-104068932D01*
X163278192Y-104202182D01*
X163548691Y-104284236D01*
X163759508Y-104305000D01*
X163900492Y-104305000D01*
X164111309Y-104284236D01*
X164381808Y-104202182D01*
X164631101Y-104068932D01*
X164849608Y-103889608D01*
X165028932Y-103671101D01*
X165162182Y-103421808D01*
X165244236Y-103151309D01*
X165271943Y-102870000D01*
X165244236Y-102588691D01*
X165162182Y-102318192D01*
X165028932Y-102068899D01*
X164849608Y-101850392D01*
X164631101Y-101671068D01*
X164381808Y-101537818D01*
X164111309Y-101455764D01*
X163900492Y-101435000D01*
X163759508Y-101435000D01*
X163548691Y-101455764D01*
X163278192Y-101537818D01*
X163028899Y-101671068D01*
X162810392Y-101850392D01*
X162631068Y-102068899D01*
X162609099Y-102110000D01*
X160334802Y-102110000D01*
X159948803Y-101724002D01*
X159948799Y-101723997D01*
X158678804Y-100454003D01*
X158655001Y-100424999D01*
X158539276Y-100330026D01*
X158407247Y-100259454D01*
X158263986Y-100215997D01*
X158152333Y-100205000D01*
X158152322Y-100205000D01*
X158115000Y-100201324D01*
X158077678Y-100205000D01*
X154207341Y-100205000D01*
X154120120Y-100074465D01*
X153925535Y-99879880D01*
X153696727Y-99726995D01*
X153442490Y-99621686D01*
X153172592Y-99568000D01*
X152897408Y-99568000D01*
X152627510Y-99621686D01*
X152373273Y-99726995D01*
X152144465Y-99879880D01*
X151949880Y-100074465D01*
X151862659Y-100205000D01*
X151167322Y-100205000D01*
X151129999Y-100201324D01*
X151092676Y-100205000D01*
X151092667Y-100205000D01*
X150981014Y-100215997D01*
X150837753Y-100259454D01*
X150705724Y-100330026D01*
X150705722Y-100330027D01*
X150705723Y-100330027D01*
X150618996Y-100401201D01*
X150618992Y-100401205D01*
X150589999Y-100424999D01*
X150566205Y-100453992D01*
X148079003Y-102941196D01*
X148049999Y-102964999D01*
X147994871Y-103032174D01*
X147955026Y-103080724D01*
X147911451Y-103162246D01*
X147884454Y-103212754D01*
X147840997Y-103356015D01*
X147830000Y-103467668D01*
X147830000Y-103467678D01*
X147826324Y-103505000D01*
X146710000Y-103505000D01*
X146710000Y-95910000D01*
X180315001Y-95910000D01*
X180315000Y-140310000D01*
X180315000Y-140310000D01*
G37*
X180315000Y-140310000D02*
X146710000Y-140310000D01*
X146710000Y-103505000D01*
X147826324Y-103505000D01*
X147830000Y-103542322D01*
X147830001Y-119977667D01*
X147826324Y-120015000D01*
X147830001Y-120052333D01*
X147832449Y-120077182D01*
X147840998Y-120163985D01*
X147884454Y-120307246D01*
X147955026Y-120439276D01*
X147991648Y-120483899D01*
X148050000Y-120555001D01*
X148078998Y-120578799D01*
X149296201Y-121796003D01*
X149319999Y-121825001D01*
X149435724Y-121919974D01*
X149567753Y-121990546D01*
X149711014Y-122034003D01*
X149822667Y-122045000D01*
X149822676Y-122045000D01*
X149859999Y-122048676D01*
X149897322Y-122045000D01*
X149909099Y-122045000D01*
X149931068Y-122086101D01*
X150110392Y-122304608D01*
X150328899Y-122483932D01*
X150461858Y-122555000D01*
X150328899Y-122626068D01*
X150110392Y-122805392D01*
X149931068Y-123023899D01*
X149797818Y-123273192D01*
X149715764Y-123543691D01*
X149688057Y-123825000D01*
X149715764Y-124106309D01*
X149797818Y-124376808D01*
X149931068Y-124626101D01*
X150110392Y-124844608D01*
X150328899Y-125023932D01*
X150578192Y-125157182D01*
X150848691Y-125239236D01*
X151059508Y-125260000D01*
X151200492Y-125260000D01*
X151411309Y-125239236D01*
X151455906Y-125225708D01*
X152477988Y-126247791D01*
X152465506Y-126254463D01*
X152368815Y-126333815D01*
X152289463Y-126430506D01*
X152230498Y-126540820D01*
X152194188Y-126660518D01*
X152181928Y-126785000D01*
X152181928Y-128485000D01*
X152194188Y-128609482D01*
X152230498Y-128729180D01*
X152289463Y-128839494D01*
X152368815Y-128936185D01*
X152465506Y-129015537D01*
X152575820Y-129074502D01*
X152695518Y-129110812D01*
X152820000Y-129123072D01*
X154520000Y-129123072D01*
X154644482Y-129110812D01*
X154764180Y-129074502D01*
X154874494Y-129015537D01*
X154971185Y-128936185D01*
X155050537Y-128839494D01*
X155109502Y-128729180D01*
X155133966Y-128648534D01*
X155209731Y-128732588D01*
X155443080Y-128906641D01*
X155705901Y-129031825D01*
X155853110Y-129076476D01*
X156083000Y-128955155D01*
X156083000Y-127762000D01*
X156337000Y-127762000D01*
X156337000Y-128955155D01*
X156566890Y-129076476D01*
X156714099Y-129031825D01*
X156976920Y-128906641D01*
X157210269Y-128732588D01*
X157405178Y-128516355D01*
X157554157Y-128266252D01*
X157651481Y-127991891D01*
X157530814Y-127762000D01*
X156337000Y-127762000D01*
X156083000Y-127762000D01*
X156063000Y-127762000D01*
X156063000Y-127508000D01*
X156083000Y-127508000D01*
X156083000Y-126314845D01*
X156337000Y-126314845D01*
X156337000Y-127508000D01*
X157530814Y-127508000D01*
X157651481Y-127278109D01*
X157554157Y-127003748D01*
X157405178Y-126753645D01*
X157210269Y-126537412D01*
X156976920Y-126363359D01*
X156714099Y-126238175D01*
X156566890Y-126193524D01*
X156337000Y-126314845D01*
X156083000Y-126314845D01*
X155853110Y-126193524D01*
X155705901Y-126238175D01*
X155443080Y-126363359D01*
X155209731Y-126537412D01*
X155133966Y-126621466D01*
X155109502Y-126540820D01*
X155050537Y-126430506D01*
X154971185Y-126333815D01*
X154874494Y-126254463D01*
X154764180Y-126195498D01*
X154644482Y-126159188D01*
X154520000Y-126146928D01*
X154398046Y-126146928D01*
X154375546Y-126072753D01*
X154304974Y-125940724D01*
X154291811Y-125924685D01*
X154233799Y-125853996D01*
X154233795Y-125853992D01*
X154210001Y-125824999D01*
X154181009Y-125801206D01*
X153004803Y-124625000D01*
X157311928Y-124625000D01*
X157324188Y-124749482D01*
X157360498Y-124869180D01*
X157419463Y-124979494D01*
X157498815Y-125076185D01*
X157595506Y-125155537D01*
X157705820Y-125214502D01*
X157825518Y-125250812D01*
X157950000Y-125263072D01*
X158464250Y-125260000D01*
X158623000Y-125101250D01*
X158623000Y-123952000D01*
X158877000Y-123952000D01*
X158877000Y-125101250D01*
X159035750Y-125260000D01*
X159550000Y-125263072D01*
X159674482Y-125250812D01*
X159794180Y-125214502D01*
X159904494Y-125155537D01*
X160001185Y-125076185D01*
X160080537Y-124979494D01*
X160139502Y-124869180D01*
X160175812Y-124749482D01*
X160188072Y-124625000D01*
X160185000Y-124110750D01*
X160026250Y-123952000D01*
X158877000Y-123952000D01*
X158623000Y-123952000D01*
X157473750Y-123952000D01*
X157315000Y-124110750D01*
X157311928Y-124625000D01*
X153004803Y-124625000D01*
X152530708Y-124150906D01*
X152544236Y-124106309D01*
X152571943Y-123825000D01*
X152544236Y-123543691D01*
X152462182Y-123273192D01*
X152328932Y-123023899D01*
X152149608Y-122805392D01*
X151931101Y-122626068D01*
X151798142Y-122555000D01*
X151931101Y-122483932D01*
X152149608Y-122304608D01*
X152328932Y-122086101D01*
X152462182Y-121836808D01*
X152544236Y-121566309D01*
X152571943Y-121285000D01*
X152544236Y-121003691D01*
X152462182Y-120733192D01*
X152328932Y-120483899D01*
X152149608Y-120265392D01*
X151931101Y-120086068D01*
X151798142Y-120015000D01*
X151931101Y-119943932D01*
X152149608Y-119764608D01*
X152328932Y-119546101D01*
X152350901Y-119505000D01*
X153355199Y-119505000D01*
X155646205Y-121796008D01*
X155669999Y-121825001D01*
X155698992Y-121848795D01*
X155698996Y-121848799D01*
X155769685Y-121906811D01*
X155785724Y-121919974D01*
X155917753Y-121990546D01*
X156061014Y-122034003D01*
X156172667Y-122045000D01*
X156172676Y-122045000D01*
X156209999Y-122048676D01*
X156247322Y-122045000D01*
X157529099Y-122045000D01*
X157551068Y-122086101D01*
X157730392Y-122304608D01*
X157843482Y-122397419D01*
X157825518Y-122399188D01*
X157705820Y-122435498D01*
X157595506Y-122494463D01*
X157498815Y-122573815D01*
X157419463Y-122670506D01*
X157360498Y-122780820D01*
X157324188Y-122900518D01*
X157311928Y-123025000D01*
X157315000Y-123539250D01*
X157473750Y-123698000D01*
X158623000Y-123698000D01*
X158623000Y-123678000D01*
X158877000Y-123678000D01*
X158877000Y-123698000D01*
X160026250Y-123698000D01*
X160185000Y-123539250D01*
X160188072Y-123025000D01*
X160176159Y-122904039D01*
X162438096Y-122904039D01*
X162478754Y-123038087D01*
X162598963Y-123292420D01*
X162766481Y-123518414D01*
X162974869Y-123707385D01*
X163216119Y-123852070D01*
X163480960Y-123946909D01*
X163703000Y-123825624D01*
X163703000Y-122682000D01*
X163957000Y-122682000D01*
X163957000Y-123825624D01*
X164179040Y-123946909D01*
X164443881Y-123852070D01*
X164685131Y-123707385D01*
X164893519Y-123518414D01*
X165061037Y-123292420D01*
X165181246Y-123038087D01*
X165221904Y-122904039D01*
X165099915Y-122682000D01*
X163957000Y-122682000D01*
X163703000Y-122682000D01*
X162560085Y-122682000D01*
X162438096Y-122904039D01*
X160176159Y-122904039D01*
X160175812Y-122900518D01*
X160139502Y-122780820D01*
X160080537Y-122670506D01*
X160001185Y-122573815D01*
X159904494Y-122494463D01*
X159794180Y-122435498D01*
X159674482Y-122399188D01*
X159656518Y-122397419D01*
X159769608Y-122304608D01*
X159850565Y-122205961D01*
X162438096Y-122205961D01*
X162560085Y-122428000D01*
X163703000Y-122428000D01*
X163703000Y-121284376D01*
X163957000Y-121284376D01*
X163957000Y-122428000D01*
X165099915Y-122428000D01*
X165107790Y-122413665D01*
X170015000Y-122413665D01*
X170015000Y-122696335D01*
X170070147Y-122973574D01*
X170178320Y-123234727D01*
X170335363Y-123469759D01*
X170535241Y-123669637D01*
X170770273Y-123826680D01*
X171031426Y-123934853D01*
X171308665Y-123990000D01*
X171591335Y-123990000D01*
X171868574Y-123934853D01*
X172129727Y-123826680D01*
X172364759Y-123669637D01*
X172564637Y-123469759D01*
X172721680Y-123234727D01*
X172829853Y-122973574D01*
X172885000Y-122696335D01*
X172885000Y-122413665D01*
X172860402Y-122290000D01*
X173721928Y-122290000D01*
X173721928Y-124090000D01*
X173734188Y-124214482D01*
X173770498Y-124334180D01*
X173829463Y-124444494D01*
X173908815Y-124541185D01*
X174005506Y-124620537D01*
X174115820Y-124679502D01*
X174235518Y-124715812D01*
X174360000Y-124728072D01*
X176160000Y-124728072D01*
X176284482Y-124715812D01*
X176404180Y-124679502D01*
X176514494Y-124620537D01*
X176611185Y-124541185D01*
X176690537Y-124444494D01*
X176749502Y-124334180D01*
X176755056Y-124315873D01*
X176821495Y-124382312D01*
X177072905Y-124550299D01*
X177352257Y-124666011D01*
X177648816Y-124725000D01*
X177951184Y-124725000D01*
X178247743Y-124666011D01*
X178527095Y-124550299D01*
X178778505Y-124382312D01*
X178992312Y-124168505D01*
X179160299Y-123917095D01*
X179276011Y-123637743D01*
X179335000Y-123341184D01*
X179335000Y-123038816D01*
X179276011Y-122742257D01*
X179160299Y-122462905D01*
X178992312Y-122211495D01*
X178778505Y-121997688D01*
X178527095Y-121829701D01*
X178247743Y-121713989D01*
X177951184Y-121655000D01*
X177648816Y-121655000D01*
X177352257Y-121713989D01*
X177072905Y-121829701D01*
X176821495Y-121997688D01*
X176755056Y-122064127D01*
X176749502Y-122045820D01*
X176690537Y-121935506D01*
X176611185Y-121838815D01*
X176514494Y-121759463D01*
X176404180Y-121700498D01*
X176284482Y-121664188D01*
X176160000Y-121651928D01*
X174360000Y-121651928D01*
X174235518Y-121664188D01*
X174115820Y-121700498D01*
X174005506Y-121759463D01*
X173908815Y-121838815D01*
X173829463Y-121935506D01*
X173770498Y-122045820D01*
X173734188Y-122165518D01*
X173721928Y-122290000D01*
X172860402Y-122290000D01*
X172829853Y-122136426D01*
X172721680Y-121875273D01*
X172564637Y-121640241D01*
X172364759Y-121440363D01*
X172129727Y-121283320D01*
X171868574Y-121175147D01*
X171591335Y-121120000D01*
X171308665Y-121120000D01*
X171031426Y-121175147D01*
X170770273Y-121283320D01*
X170535241Y-121440363D01*
X170335363Y-121640241D01*
X170178320Y-121875273D01*
X170070147Y-122136426D01*
X170015000Y-122413665D01*
X165107790Y-122413665D01*
X165221904Y-122205961D01*
X165181246Y-122071913D01*
X165061037Y-121817580D01*
X164893519Y-121591586D01*
X164685131Y-121402615D01*
X164443881Y-121257930D01*
X164179040Y-121163091D01*
X163957000Y-121284376D01*
X163703000Y-121284376D01*
X163480960Y-121163091D01*
X163216119Y-121257930D01*
X162974869Y-121402615D01*
X162766481Y-121591586D01*
X162598963Y-121817580D01*
X162478754Y-122071913D01*
X162438096Y-122205961D01*
X159850565Y-122205961D01*
X159948932Y-122086101D01*
X160082182Y-121836808D01*
X160164236Y-121566309D01*
X160191943Y-121285000D01*
X160164236Y-121003691D01*
X160082182Y-120733192D01*
X159948932Y-120483899D01*
X159769608Y-120265392D01*
X159551101Y-120086068D01*
X159418142Y-120015000D01*
X159551101Y-119943932D01*
X159769608Y-119764608D01*
X159948932Y-119546101D01*
X159970901Y-119505000D01*
X177127678Y-119505000D01*
X177165000Y-119508676D01*
X177202322Y-119505000D01*
X177202333Y-119505000D01*
X177313986Y-119494003D01*
X177457247Y-119450546D01*
X177589276Y-119379974D01*
X177705001Y-119285001D01*
X177728803Y-119255998D01*
X178311004Y-118673798D01*
X178340001Y-118650001D01*
X178434974Y-118534276D01*
X178505546Y-118402247D01*
X178549003Y-118258986D01*
X178560000Y-118147333D01*
X178560000Y-118147332D01*
X178563677Y-118110000D01*
X178560000Y-118072667D01*
X178560000Y-117743072D01*
X178700000Y-117743072D01*
X178824482Y-117730812D01*
X178944180Y-117694502D01*
X179054494Y-117635537D01*
X179151185Y-117556185D01*
X179230537Y-117459494D01*
X179289502Y-117349180D01*
X179325812Y-117229482D01*
X179338072Y-117105000D01*
X179338072Y-115305000D01*
X179325812Y-115180518D01*
X179289502Y-115060820D01*
X179230537Y-114950506D01*
X179151185Y-114853815D01*
X179054494Y-114774463D01*
X178944180Y-114715498D01*
X178824482Y-114679188D01*
X178700000Y-114666928D01*
X178560000Y-114666928D01*
X178560000Y-111978072D01*
X178650000Y-111978072D01*
X178774482Y-111965812D01*
X178894180Y-111929502D01*
X179004494Y-111870537D01*
X179101185Y-111791185D01*
X179180537Y-111694494D01*
X179239502Y-111584180D01*
X179275812Y-111464482D01*
X179288072Y-111340000D01*
X179288072Y-109640000D01*
X179275812Y-109515518D01*
X179239502Y-109395820D01*
X179180537Y-109285506D01*
X179101185Y-109188815D01*
X179004494Y-109109463D01*
X178894180Y-109050498D01*
X178813534Y-109026034D01*
X178897588Y-108950269D01*
X179071641Y-108716920D01*
X179196825Y-108454099D01*
X179241476Y-108306890D01*
X179120155Y-108077000D01*
X177927000Y-108077000D01*
X177927000Y-108097000D01*
X177673000Y-108097000D01*
X177673000Y-108077000D01*
X176479845Y-108077000D01*
X176358524Y-108306890D01*
X176403175Y-108454099D01*
X176528359Y-108716920D01*
X176702412Y-108950269D01*
X176786466Y-109026034D01*
X176705820Y-109050498D01*
X176595506Y-109109463D01*
X176498815Y-109188815D01*
X176419463Y-109285506D01*
X176360498Y-109395820D01*
X176324188Y-109515518D01*
X176311928Y-109640000D01*
X176311928Y-111340000D01*
X176324188Y-111464482D01*
X176360498Y-111584180D01*
X176419463Y-111694494D01*
X176498815Y-111791185D01*
X176595506Y-111870537D01*
X176705820Y-111929502D01*
X176825518Y-111965812D01*
X176950000Y-111978072D01*
X177040000Y-111978072D01*
X177040001Y-114666928D01*
X176900000Y-114666928D01*
X176775518Y-114679188D01*
X176655820Y-114715498D01*
X176545506Y-114774463D01*
X176448815Y-114853815D01*
X176369463Y-114950506D01*
X176310498Y-115060820D01*
X176304944Y-115079127D01*
X176238505Y-115012688D01*
X175987095Y-114844701D01*
X175707743Y-114728989D01*
X175411184Y-114670000D01*
X175108816Y-114670000D01*
X174812257Y-114728989D01*
X174532905Y-114844701D01*
X174281495Y-115012688D01*
X174067688Y-115226495D01*
X173921687Y-115445000D01*
X172670901Y-115445000D01*
X172648932Y-115403899D01*
X172469608Y-115185392D01*
X172251101Y-115006068D01*
X172001808Y-114872818D01*
X171731309Y-114790764D01*
X171520492Y-114770000D01*
X171379508Y-114770000D01*
X171168691Y-114790764D01*
X170898192Y-114872818D01*
X170648899Y-115006068D01*
X170430392Y-115185392D01*
X170251068Y-115403899D01*
X170117818Y-115653192D01*
X170035764Y-115923691D01*
X170008057Y-116205000D01*
X170035764Y-116486309D01*
X170117818Y-116756808D01*
X170251068Y-117006101D01*
X170430392Y-117224608D01*
X170648899Y-117403932D01*
X170898192Y-117537182D01*
X171168691Y-117619236D01*
X171379508Y-117640000D01*
X171520492Y-117640000D01*
X171731309Y-117619236D01*
X172001808Y-117537182D01*
X172251101Y-117403932D01*
X172469608Y-117224608D01*
X172648932Y-117006101D01*
X172670901Y-116965000D01*
X173921687Y-116965000D01*
X174067688Y-117183505D01*
X174281495Y-117397312D01*
X174532905Y-117565299D01*
X174812257Y-117681011D01*
X175108816Y-117740000D01*
X175411184Y-117740000D01*
X175707743Y-117681011D01*
X175987095Y-117565299D01*
X176238505Y-117397312D01*
X176304944Y-117330873D01*
X176310498Y-117349180D01*
X176369463Y-117459494D01*
X176448815Y-117556185D01*
X176545506Y-117635537D01*
X176655820Y-117694502D01*
X176775518Y-117730812D01*
X176900000Y-117743072D01*
X177040000Y-117743072D01*
X177040000Y-117795198D01*
X176850199Y-117985000D01*
X159970901Y-117985000D01*
X159948932Y-117943899D01*
X159769608Y-117725392D01*
X159551101Y-117546068D01*
X159418142Y-117475000D01*
X159551101Y-117403932D01*
X159769608Y-117224608D01*
X159948932Y-117006101D01*
X159970901Y-116965000D01*
X162611957Y-116965000D01*
X162715363Y-117119759D01*
X162915241Y-117319637D01*
X163150273Y-117476680D01*
X163411426Y-117584853D01*
X163688665Y-117640000D01*
X163971335Y-117640000D01*
X164248574Y-117584853D01*
X164509727Y-117476680D01*
X164744759Y-117319637D01*
X164944637Y-117119759D01*
X165101680Y-116884727D01*
X165209853Y-116623574D01*
X165265000Y-116346335D01*
X165265000Y-116063665D01*
X165209853Y-115786426D01*
X165101680Y-115525273D01*
X164944637Y-115290241D01*
X164744759Y-115090363D01*
X164590000Y-114986957D01*
X164590000Y-111708043D01*
X164744759Y-111604637D01*
X164944637Y-111404759D01*
X165101680Y-111169727D01*
X165209853Y-110908574D01*
X165265000Y-110631335D01*
X165265000Y-110348665D01*
X165209853Y-110071426D01*
X165101680Y-109810273D01*
X164944637Y-109575241D01*
X164907098Y-109537702D01*
X168731903Y-109537702D01*
X168803486Y-109781671D01*
X169058996Y-109902571D01*
X169333184Y-109971300D01*
X169615512Y-109985217D01*
X169895130Y-109943787D01*
X170161292Y-109848603D01*
X170286514Y-109781671D01*
X170358097Y-109537702D01*
X169545000Y-108724605D01*
X168731903Y-109537702D01*
X164907098Y-109537702D01*
X164744759Y-109375363D01*
X164509727Y-109218320D01*
X164248574Y-109110147D01*
X163971335Y-109055000D01*
X163688665Y-109055000D01*
X163411426Y-109110147D01*
X163150273Y-109218320D01*
X162915241Y-109375363D01*
X162715363Y-109575241D01*
X162558320Y-109810273D01*
X162450147Y-110071426D01*
X162395000Y-110348665D01*
X162395000Y-110631335D01*
X162450147Y-110908574D01*
X162558320Y-111169727D01*
X162715363Y-111404759D01*
X162915241Y-111604637D01*
X163070000Y-111708044D01*
X163070001Y-114986956D01*
X162915241Y-115090363D01*
X162715363Y-115290241D01*
X162611957Y-115445000D01*
X159970901Y-115445000D01*
X159948932Y-115403899D01*
X159769608Y-115185392D01*
X159551101Y-115006068D01*
X159301808Y-114872818D01*
X159031309Y-114790764D01*
X158820492Y-114770000D01*
X158679508Y-114770000D01*
X158468691Y-114790764D01*
X158198192Y-114872818D01*
X157948899Y-115006068D01*
X157730392Y-115185392D01*
X157551068Y-115403899D01*
X157417818Y-115653192D01*
X157335764Y-115923691D01*
X157308057Y-116205000D01*
X157335764Y-116486309D01*
X157417818Y-116756808D01*
X157551068Y-117006101D01*
X157730392Y-117224608D01*
X157948899Y-117403932D01*
X158081858Y-117475000D01*
X157948899Y-117546068D01*
X157730392Y-117725392D01*
X157551068Y-117943899D01*
X157417818Y-118193192D01*
X157335764Y-118463691D01*
X157308057Y-118745000D01*
X157335764Y-119026309D01*
X157417818Y-119296808D01*
X157551068Y-119546101D01*
X157730392Y-119764608D01*
X157948899Y-119943932D01*
X158081858Y-120015000D01*
X157948899Y-120086068D01*
X157730392Y-120265392D01*
X157551068Y-120483899D01*
X157529099Y-120525000D01*
X156524803Y-120525000D01*
X154233804Y-118234003D01*
X154210001Y-118204999D01*
X154094276Y-118110026D01*
X153962247Y-118039454D01*
X153818986Y-117995997D01*
X153707333Y-117985000D01*
X153707322Y-117985000D01*
X153670000Y-117981324D01*
X153632678Y-117985000D01*
X152350901Y-117985000D01*
X152328932Y-117943899D01*
X152149608Y-117725392D01*
X151931101Y-117546068D01*
X151798142Y-117475000D01*
X151931101Y-117403932D01*
X152149608Y-117224608D01*
X152328932Y-117006101D01*
X152462182Y-116756808D01*
X152544236Y-116486309D01*
X152571943Y-116205000D01*
X152544236Y-115923691D01*
X152462182Y-115653192D01*
X152328932Y-115403899D01*
X152149608Y-115185392D01*
X151931101Y-115006068D01*
X151681808Y-114872818D01*
X151411309Y-114790764D01*
X151200492Y-114770000D01*
X151059508Y-114770000D01*
X150848691Y-114790764D01*
X150578192Y-114872818D01*
X150328899Y-115006068D01*
X150110392Y-115185392D01*
X149985000Y-115338183D01*
X149985000Y-113344801D01*
X151444802Y-111885000D01*
X151862659Y-111885000D01*
X151949880Y-112015535D01*
X152144465Y-112210120D01*
X152373273Y-112363005D01*
X152627510Y-112468314D01*
X152897408Y-112522000D01*
X153172592Y-112522000D01*
X153442490Y-112468314D01*
X153696727Y-112363005D01*
X153925535Y-112210120D01*
X154120120Y-112015535D01*
X154273005Y-111786727D01*
X154378314Y-111532490D01*
X154432000Y-111262592D01*
X154432000Y-110987408D01*
X154378314Y-110717510D01*
X154273005Y-110463273D01*
X154120120Y-110234465D01*
X153925535Y-110039880D01*
X153795000Y-109952659D01*
X153795000Y-108615512D01*
X168104783Y-108615512D01*
X168146213Y-108895130D01*
X168241397Y-109161292D01*
X168308329Y-109286514D01*
X168552298Y-109358097D01*
X169365395Y-108545000D01*
X169724605Y-108545000D01*
X170537702Y-109358097D01*
X170781671Y-109286514D01*
X170902571Y-109031004D01*
X170971300Y-108756816D01*
X170985217Y-108474488D01*
X170943787Y-108194870D01*
X170848603Y-107928708D01*
X170781671Y-107803486D01*
X170537702Y-107731903D01*
X169724605Y-108545000D01*
X169365395Y-108545000D01*
X168552298Y-107731903D01*
X168308329Y-107803486D01*
X168187429Y-108058996D01*
X168118700Y-108333184D01*
X168104783Y-108615512D01*
X153795000Y-108615512D01*
X153795000Y-107217341D01*
X153925535Y-107130120D01*
X154120120Y-106935535D01*
X154207341Y-106805000D01*
X168106928Y-106805000D01*
X168106928Y-106845000D01*
X168119188Y-106969482D01*
X168155498Y-107089180D01*
X168214463Y-107199494D01*
X168293815Y-107296185D01*
X168390506Y-107375537D01*
X168500820Y-107434502D01*
X168620518Y-107470812D01*
X168745000Y-107483072D01*
X168752215Y-107483072D01*
X168731903Y-107552298D01*
X169545000Y-108365395D01*
X170317285Y-107593110D01*
X176358524Y-107593110D01*
X176479845Y-107823000D01*
X177673000Y-107823000D01*
X177673000Y-106629186D01*
X177927000Y-106629186D01*
X177927000Y-107823000D01*
X179120155Y-107823000D01*
X179241476Y-107593110D01*
X179196825Y-107445901D01*
X179071641Y-107183080D01*
X178897588Y-106949731D01*
X178681355Y-106754822D01*
X178431252Y-106605843D01*
X178156891Y-106508519D01*
X177927000Y-106629186D01*
X177673000Y-106629186D01*
X177443109Y-106508519D01*
X177168748Y-106605843D01*
X176918645Y-106754822D01*
X176702412Y-106949731D01*
X176528359Y-107183080D01*
X176403175Y-107445901D01*
X176358524Y-107593110D01*
X170317285Y-107593110D01*
X170358097Y-107552298D01*
X170337785Y-107483072D01*
X170345000Y-107483072D01*
X170469482Y-107470812D01*
X170589180Y-107434502D01*
X170699494Y-107375537D01*
X170796185Y-107296185D01*
X170875537Y-107199494D01*
X170934502Y-107089180D01*
X170970812Y-106969482D01*
X170983072Y-106845000D01*
X170983072Y-106805000D01*
X174587678Y-106805000D01*
X174625000Y-106808676D01*
X174662322Y-106805000D01*
X174662333Y-106805000D01*
X174773986Y-106794003D01*
X174917247Y-106750546D01*
X175049276Y-106679974D01*
X175165001Y-106585001D01*
X175188803Y-106555998D01*
X175771002Y-105973800D01*
X175800001Y-105950001D01*
X175894974Y-105834276D01*
X175965546Y-105702247D01*
X176009003Y-105558986D01*
X176020000Y-105447333D01*
X176023677Y-105410000D01*
X176020000Y-105372667D01*
X176020000Y-102591890D01*
X176358524Y-102591890D01*
X176403175Y-102739099D01*
X176528359Y-103001920D01*
X176702412Y-103235269D01*
X176918645Y-103430178D01*
X177168748Y-103579157D01*
X177443109Y-103676481D01*
X177673000Y-103555814D01*
X177673000Y-102362000D01*
X177927000Y-102362000D01*
X177927000Y-103555814D01*
X178156891Y-103676481D01*
X178431252Y-103579157D01*
X178681355Y-103430178D01*
X178897588Y-103235269D01*
X179071641Y-103001920D01*
X179196825Y-102739099D01*
X179241476Y-102591890D01*
X179120155Y-102362000D01*
X177927000Y-102362000D01*
X177673000Y-102362000D01*
X176479845Y-102362000D01*
X176358524Y-102591890D01*
X176020000Y-102591890D01*
X176020000Y-100644801D01*
X176209802Y-100455000D01*
X176311928Y-100455000D01*
X176311928Y-100545000D01*
X176324188Y-100669482D01*
X176360498Y-100789180D01*
X176419463Y-100899494D01*
X176498815Y-100996185D01*
X176595506Y-101075537D01*
X176705820Y-101134502D01*
X176786466Y-101158966D01*
X176702412Y-101234731D01*
X176528359Y-101468080D01*
X176403175Y-101730901D01*
X176358524Y-101878110D01*
X176479845Y-102108000D01*
X177673000Y-102108000D01*
X177673000Y-102088000D01*
X177927000Y-102088000D01*
X177927000Y-102108000D01*
X179120155Y-102108000D01*
X179241476Y-101878110D01*
X179196825Y-101730901D01*
X179071641Y-101468080D01*
X178897588Y-101234731D01*
X178813534Y-101158966D01*
X178894180Y-101134502D01*
X179004494Y-101075537D01*
X179101185Y-100996185D01*
X179180537Y-100899494D01*
X179239502Y-100789180D01*
X179275812Y-100669482D01*
X179288072Y-100545000D01*
X179288072Y-98845000D01*
X179275812Y-98720518D01*
X179239502Y-98600820D01*
X179180537Y-98490506D01*
X179101185Y-98393815D01*
X179004494Y-98314463D01*
X178894180Y-98255498D01*
X178774482Y-98219188D01*
X178650000Y-98206928D01*
X176950000Y-98206928D01*
X176825518Y-98219188D01*
X176705820Y-98255498D01*
X176595506Y-98314463D01*
X176498815Y-98393815D01*
X176419463Y-98490506D01*
X176360498Y-98600820D01*
X176324188Y-98720518D01*
X176311928Y-98845000D01*
X176311928Y-98935000D01*
X175932333Y-98935000D01*
X175895000Y-98931323D01*
X175857667Y-98935000D01*
X175746014Y-98945997D01*
X175602753Y-98989454D01*
X175470724Y-99060026D01*
X175354999Y-99154999D01*
X175331200Y-99183998D01*
X174749002Y-99766197D01*
X174719999Y-99789999D01*
X174664871Y-99857174D01*
X174625026Y-99905724D01*
X174581451Y-99987247D01*
X174554454Y-100037754D01*
X174510997Y-100181015D01*
X174500000Y-100292668D01*
X174500000Y-100292678D01*
X174496324Y-100330000D01*
X174500000Y-100367323D01*
X174500001Y-105095197D01*
X174310199Y-105285000D01*
X170983072Y-105285000D01*
X170983072Y-105245000D01*
X170970812Y-105120518D01*
X170934502Y-105000820D01*
X170875537Y-104890506D01*
X170796185Y-104793815D01*
X170699494Y-104714463D01*
X170589180Y-104655498D01*
X170469482Y-104619188D01*
X170345000Y-104606928D01*
X168745000Y-104606928D01*
X168620518Y-104619188D01*
X168500820Y-104655498D01*
X168390506Y-104714463D01*
X168293815Y-104793815D01*
X168214463Y-104890506D01*
X168155498Y-105000820D01*
X168119188Y-105120518D01*
X168106928Y-105245000D01*
X168106928Y-105285000D01*
X154207341Y-105285000D01*
X154120120Y-105154465D01*
X153925535Y-104959880D01*
X153696727Y-104806995D01*
X153442490Y-104701686D01*
X153172592Y-104648000D01*
X152897408Y-104648000D01*
X152627510Y-104701686D01*
X152373273Y-104806995D01*
X152144465Y-104959880D01*
X151949880Y-105154465D01*
X151796995Y-105383273D01*
X151691686Y-105637510D01*
X151638000Y-105907408D01*
X151638000Y-106182592D01*
X151691686Y-106452490D01*
X151796995Y-106706727D01*
X151949880Y-106935535D01*
X152144465Y-107130120D01*
X152275000Y-107217341D01*
X152275001Y-109952659D01*
X152144465Y-110039880D01*
X151949880Y-110234465D01*
X151862659Y-110365000D01*
X151167323Y-110365000D01*
X151130000Y-110361324D01*
X151092677Y-110365000D01*
X151092667Y-110365000D01*
X150981014Y-110375997D01*
X150837753Y-110419454D01*
X150705724Y-110490026D01*
X150589999Y-110584999D01*
X150566201Y-110613997D01*
X149350000Y-111830199D01*
X149350000Y-103819801D01*
X151444803Y-101725000D01*
X151862659Y-101725000D01*
X151949880Y-101855535D01*
X152144465Y-102050120D01*
X152373273Y-102203005D01*
X152627510Y-102308314D01*
X152897408Y-102362000D01*
X153172592Y-102362000D01*
X153442490Y-102308314D01*
X153696727Y-102203005D01*
X153925535Y-102050120D01*
X154120120Y-101855535D01*
X154207341Y-101725000D01*
X157800199Y-101725000D01*
X158873997Y-102798799D01*
X158874002Y-102798803D01*
X159456200Y-103381002D01*
X159479999Y-103410001D01*
X159595724Y-103504974D01*
X159727753Y-103575546D01*
X159871014Y-103619003D01*
X160020000Y-103633677D01*
X160057333Y-103630000D01*
X162609099Y-103630000D01*
X162631068Y-103671101D01*
X162810392Y-103889608D01*
X163028899Y-104068932D01*
X163278192Y-104202182D01*
X163548691Y-104284236D01*
X163759508Y-104305000D01*
X163900492Y-104305000D01*
X164111309Y-104284236D01*
X164381808Y-104202182D01*
X164631101Y-104068932D01*
X164849608Y-103889608D01*
X165028932Y-103671101D01*
X165162182Y-103421808D01*
X165244236Y-103151309D01*
X165271943Y-102870000D01*
X165244236Y-102588691D01*
X165162182Y-102318192D01*
X165028932Y-102068899D01*
X164849608Y-101850392D01*
X164631101Y-101671068D01*
X164381808Y-101537818D01*
X164111309Y-101455764D01*
X163900492Y-101435000D01*
X163759508Y-101435000D01*
X163548691Y-101455764D01*
X163278192Y-101537818D01*
X163028899Y-101671068D01*
X162810392Y-101850392D01*
X162631068Y-102068899D01*
X162609099Y-102110000D01*
X160334802Y-102110000D01*
X159948803Y-101724002D01*
X159948799Y-101723997D01*
X158678804Y-100454003D01*
X158655001Y-100424999D01*
X158539276Y-100330026D01*
X158407247Y-100259454D01*
X158263986Y-100215997D01*
X158152333Y-100205000D01*
X158152322Y-100205000D01*
X158115000Y-100201324D01*
X158077678Y-100205000D01*
X154207341Y-100205000D01*
X154120120Y-100074465D01*
X153925535Y-99879880D01*
X153696727Y-99726995D01*
X153442490Y-99621686D01*
X153172592Y-99568000D01*
X152897408Y-99568000D01*
X152627510Y-99621686D01*
X152373273Y-99726995D01*
X152144465Y-99879880D01*
X151949880Y-100074465D01*
X151862659Y-100205000D01*
X151167322Y-100205000D01*
X151129999Y-100201324D01*
X151092676Y-100205000D01*
X151092667Y-100205000D01*
X150981014Y-100215997D01*
X150837753Y-100259454D01*
X150705724Y-100330026D01*
X150705722Y-100330027D01*
X150705723Y-100330027D01*
X150618996Y-100401201D01*
X150618992Y-100401205D01*
X150589999Y-100424999D01*
X150566205Y-100453992D01*
X148079003Y-102941196D01*
X148049999Y-102964999D01*
X147994871Y-103032174D01*
X147955026Y-103080724D01*
X147911451Y-103162246D01*
X147884454Y-103212754D01*
X147840997Y-103356015D01*
X147830000Y-103467668D01*
X147830000Y-103467678D01*
X147826324Y-103505000D01*
X146710000Y-103505000D01*
X146710000Y-95910000D01*
X180315001Y-95910000D01*
X180315000Y-140310000D01*
M02*
