M48
; DRILL file {KiCad (5.1.2)-2} date 18/11/2019 10:52:48 p. m.
; FORMAT={-:-/ absolute / inch / decimal}
; #@! TF.CreationDate,2019-11-18T22:52:48-06:00
; #@! TF.GenerationSoftware,Kicad,Pcbnew,(5.1.2)-2
; #@! TF.FileFunction,Plated,1,2,PTH
FMAT,2
INCH
T1C0.0300
T2C0.0315
T3C0.0354
T4C0.0394
%
G90
G05
T1
X6.025Y-3.975
X6.025Y-4.175
X6.025Y-4.375
T2
X6.45Y-4.05
X6.45Y-4.35
X6.45Y-4.825
X6.75Y-4.825
X6.45Y-4.575
X6.75Y-4.575
X5.95Y-4.575
X5.95Y-4.675
X5.95Y-4.775
X5.95Y-4.875
X6.25Y-4.575
X6.25Y-4.675
X6.25Y-4.775
X6.25Y-4.875
X6.675Y-4.175
X6.675Y-4.2734
T3
X6.9Y-4.85
X7.0Y-4.85
X6.9Y-4.575
X7.0Y-4.575
T4
X7.0Y-3.925
X7.0Y-4.025
X6.05Y-5.025
X6.15Y-5.025
X7.0Y-4.25
X7.0Y-4.35
T0
M30
