G04 #@! TF.GenerationSoftware,KiCad,Pcbnew,(5.1.2)-2*
G04 #@! TF.CreationDate,2019-11-18T22:52:37-06:00*
G04 #@! TF.ProjectId,Temporizador_V0,54656d70-6f72-4697-9a61-646f725f5630,rev?*
G04 #@! TF.SameCoordinates,Original*
G04 #@! TF.FileFunction,Copper,L1,Top*
G04 #@! TF.FilePolarity,Positive*
%FSLAX46Y46*%
G04 Gerber Fmt 4.6, Leading zero omitted, Abs format (unit mm)*
G04 Created by KiCad (PCBNEW (5.1.2)-2) date 2019-11-18 22:52:37*
%MOMM*%
%LPD*%
G04 APERTURE LIST*
%ADD10C,1.524000*%
%ADD11O,1.600000X1.600000*%
%ADD12R,1.600000X1.600000*%
%ADD13C,1.600000*%
%ADD14O,1.700000X1.700000*%
%ADD15R,1.700000X1.700000*%
%ADD16C,1.800000*%
%ADD17R,1.800000X1.800000*%
%ADD18C,0.250000*%
G04 APERTURE END LIST*
D10*
X153035000Y-100965000D03*
X153035000Y-106045000D03*
X153035000Y-111125000D03*
D11*
X151130000Y-123825000D03*
X158750000Y-116205000D03*
X151130000Y-121285000D03*
X158750000Y-118745000D03*
X151130000Y-118745000D03*
X158750000Y-121285000D03*
X151130000Y-116205000D03*
D12*
X158750000Y-123825000D03*
D11*
X163830000Y-122555000D03*
D13*
X171450000Y-122555000D03*
D11*
X171450000Y-116205000D03*
D13*
X163830000Y-116205000D03*
D11*
X163830000Y-102870000D03*
D13*
X163830000Y-110490000D03*
D14*
X177800000Y-102235000D03*
D15*
X177800000Y-99695000D03*
D14*
X177800000Y-107950000D03*
D15*
X177800000Y-110490000D03*
D14*
X156210000Y-127635000D03*
D15*
X153670000Y-127635000D03*
D16*
X177800000Y-123190000D03*
D17*
X175260000Y-123190000D03*
D16*
X175260000Y-116205000D03*
D17*
X177800000Y-116205000D03*
D13*
X169545000Y-108545000D03*
D12*
X169545000Y-106045000D03*
D18*
X177800000Y-116205000D02*
X177800000Y-123190000D01*
X171450000Y-122555000D02*
X172720000Y-122555000D01*
X172720000Y-122555000D02*
X173355000Y-123190000D01*
X173355000Y-123190000D02*
X175260000Y-123190000D01*
X156845000Y-116205000D02*
X158750000Y-116205000D01*
X155575000Y-117475000D02*
X156845000Y-116205000D01*
X155575000Y-121920000D02*
X155575000Y-117475000D01*
X151130000Y-123825000D02*
X153670000Y-123825000D01*
X153670000Y-123825000D02*
X155575000Y-121920000D01*
M02*
